<svg xmlns="http://www.w3.org/2000/svg" xmlns:xlink="http://www.w3.org/1999/xlink" contentStyleType="text/css" data-diagram-type="CLASS" height="857px" preserveAspectRatio="none" style="width:2014px;height:857px;background:#FFFFFF;" version="1.1" viewBox="0 0 2014 857" width="2014px" zoomAndPan="magnify"><?plantuml 1.2026.6?><defs/><g><!--cluster Quiz (Luy?n t?p)--><g class="cluster" data-qualified-name="Quiz .Luy.n t.p." data-source-line="15" id="ent0001"><path d="M8.5,58.0137 L118.1982,58.0137 A3.75,3.75 0 0 1 120.6982,60.5137 L127.6982,82.6348 L1198.5,82.6348 A2.5,2.5 0 0 1 1201,85.1348 L1201,839.5137 A2.5,2.5 0 0 1 1198.5,842.0137 L8.5,842.0137 A2.5,2.5 0 0 1 6,839.5137 L6,60.5137 A2.5,2.5 0 0 1 8.5,58.0137" fill="none" style="stroke:#000000;stroke-width:1.5;"/><line style="stroke:#000000;stroke-width:1.5;" x1="6" x2="127.6982" y1="82.6348" y2="82.6348"/><text fill="#000000" font-family="'Segoe UI'" font-size="14" font-weight="700" lengthAdjust="spacing" textLength="108.6982" x="10" y="75.1211">Quiz (Luy&#7879;n t&#7853;p)</text></g><!--cluster H? th?ng ? Th?ng b?o ? Audit--><g class="cluster" data-qualified-name="H. th.ng . Th.ng b.o . Audit" data-source-line="116" id="ent0014"><path d="M1261.5,6.0137 L1454.6377,6.0137 A3.75,3.75 0 0 1 1457.1377,8.5137 L1464.1377,30.6348 L1996.5,30.6348 A2.5,2.5 0 0 1 1999,33.1348 L1999,222.5137 A2.5,2.5 0 0 1 1996.5,225.0137 L1261.5,225.0137 A2.5,2.5 0 0 1 1259,222.5137 L1259,8.5137 A2.5,2.5 0 0 1 1261.5,6.0137" fill="none" style="stroke:#000000;stroke-width:1.5;"/><line style="stroke:#000000;stroke-width:1.5;" x1="1259" x2="1464.1377" y1="30.6348" y2="30.6348"/><text fill="#000000" font-family="'Segoe UI'" font-size="14" font-weight="700" lengthAdjust="spacing" textLength="192.1377" x="1263" y="23.1211">H&#7879; th&#7889;ng &#183; Th&#244;ng b&#225;o &#183; Audit</text></g><!--class qcat--><g class="entity" data-qualified-name="Quiz .Luy.n t.p..qcat" data-source-line="17" id="ent0002"><rect fill="#F1F1F1" height="61.8926" rx="2.5" ry="2.5" style="stroke:#181818;stroke-width:0.5;" width="83.041" x="505.5" y="95.0137"/><text fill="#000000" font-family="'Segoe UI'" font-size="11" font-weight="700" lengthAdjust="spacing" textLength="71.688" x="511.1765" y="111.8838">quiz_category</text><line style="stroke:#181818;stroke-width:0.5;" x1="506.5" x2="587.541" y1="119.6445" y2="119.6445"/><g data-visibility-modifier="IE_MANDATORY"><ellipse cx="516.5" cy="132.46" fill="#000000" rx="3" ry="3" style="stroke:#000000;stroke-width:1;"/></g><text fill="#000000" font-family="'Segoe UI'" font-size="11" lengthAdjust="spacing" textLength="35.8252" x="525.5" y="135.5146">id &#171;PK&#187;</text><text fill="#000000" font-family="'Segoe UI'" font-size="11" lengthAdjust="spacing" textLength="57.041" x="525.5" y="150.1455">name &#171;UQ&#187;</text></g><!--class qtag--><g class="entity" data-qualified-name="Quiz .Luy.n t.p..qtag" data-source-line="22" id="ent0003"><rect fill="#F1F1F1" height="61.8926" rx="2.5" ry="2.5" style="stroke:#181818;stroke-width:0.5;" width="147.3491" x="22.5" y="309.5137"/><text fill="#000000" font-family="'Segoe UI'" font-size="11" font-weight="700" lengthAdjust="spacing" textLength="43.436" x="74.4565" y="326.3838">quiz_tag</text><line style="stroke:#181818;stroke-width:0.5;" x1="23.5" x2="168.8491" y1="334.1445" y2="334.1445"/><g data-visibility-modifier="IE_MANDATORY"><ellipse cx="33.5" cy="346.96" fill="#000000" rx="3" ry="3" style="stroke:#000000;stroke-width:1;"/></g><text fill="#000000" font-family="'Segoe UI'" font-size="11" lengthAdjust="spacing" textLength="35.8252" x="42.5" y="350.0146">id &#171;PK&#187;</text><text fill="#000000" font-family="'Segoe UI'" font-size="11" lengthAdjust="spacing" textLength="121.3491" x="42.5" y="364.6455">name &#171;UQ&#187; / description</text></g><!--class qtagm--><g class="entity" data-qualified-name="Quiz .Luy.n t.p..qtagm" data-source-line="27" id="ent0004"><rect fill="#F1F1F1" height="77.8535" rx="2.5" ry="2.5" style="stroke:#181818;stroke-width:0.5;" width="100.8677" x="22.5" y="512.0137"/><text fill="#000000" font-family="Segoe UI" font-size="12" font-style="italic" lengthAdjust="spacing" textLength="31.4941" x="57.1868" y="529.9629">&#171;join&#187;</text><text fill="#000000" font-family="'Segoe UI'" font-size="11" font-weight="700" lengthAdjust="spacing" textLength="70.8179" x="37.5249" y="544.8447">quiz_tag_map</text><line style="stroke:#181818;stroke-width:0.5;" x1="23.5" x2="122.3677" y1="552.6055" y2="552.6055"/><g data-visibility-modifier="IE_MANDATORY"><ellipse cx="33.5" cy="565.4209" fill="#000000" rx="3" ry="3" style="stroke:#000000;stroke-width:1;"/></g><text fill="#000000" font-family="'Segoe UI'" font-size="11" lengthAdjust="spacing" textLength="74.8677" x="42.5" y="568.4756">quiz_id &#171;PK,FK&#187;</text><g data-visibility-modifier="IE_MANDATORY"><ellipse cx="33.5" cy="580.0518" fill="#000000" rx="3" ry="3" style="stroke:#000000;stroke-width:1;"/></g><text fill="#000000" font-family="'Segoe UI'" font-size="11" lengthAdjust="spacing" textLength="70.3291" x="42.5" y="583.1064">tag_id &#171;PK,FK&#187;</text></g><!--class quiz--><g class="entity" data-qualified-name="Quiz .Luy.n t.p..quiz" data-source-line="32" id="ent0005"><rect fill="#F1F1F1" height="143.0469" rx="2.5" ry="2.5" style="stroke:#181818;stroke-width:0.5;" width="138.1133" x="478" y="269.0137"/><text fill="#000000" font-family="'Segoe UI'" font-size="11" font-weight="700" lengthAdjust="spacing" textLength="21.8604" x="536.1265" y="285.8838">quiz</text><line style="stroke:#181818;stroke-width:0.5;" x1="479" x2="615.1133" y1="293.6445" y2="293.6445"/><g data-visibility-modifier="IE_MANDATORY"><ellipse cx="489" cy="306.46" fill="#000000" rx="3" ry="3" style="stroke:#000000;stroke-width:1;"/></g><text fill="#000000" font-family="'Segoe UI'" font-size="11" lengthAdjust="spacing" textLength="35.8252" x="498" y="309.5146">id &#171;PK&#187;</text><line style="stroke:#181818;stroke-width:1;" x1="479" x2="615.1133" y1="316.2754" y2="316.2754"/><text fill="#000000" font-family="'Segoe UI'" font-size="11" lengthAdjust="spacing" textLength="82.8438" x="484" y="332.1455">title / description</text><text fill="#000000" font-family="'Segoe UI'" font-size="11" lengthAdjust="spacing" textLength="107.3843" x="484" y="346.7764">status : content_status</text><text fill="#000000" font-family="'Segoe UI'" font-size="11" lengthAdjust="spacing" textLength="81.8286" x="484" y="361.4072">category_id &#171;FK&#187;</text><text fill="#000000" font-family="'Segoe UI'" font-size="11" lengthAdjust="spacing" textLength="126.1133" x="484" y="376.0381">quiz_point : int (= &#931; score)</text><text fill="#000000" font-family="'Segoe UI'" font-size="11" lengthAdjust="spacing" textLength="94.6064" x="484" y="390.6689">total_questions : int</text><text fill="#000000" font-family="'Segoe UI'" font-size="11" lengthAdjust="spacing" textLength="88.4727" x="484" y="405.2998">time_limit_sec : int</text></g><!--class qnode--><g class="entity" data-qualified-name="Quiz .Luy.n t.p..qnode" data-source-line="43" id="ent0006"><rect fill="#F1F1F1" height="113.7852" rx="2.5" ry="2.5" style="stroke:#181818;stroke-width:0.5;" width="127.4624" x="158.5" y="494.0137"/><text fill="#000000" font-family="'Segoe UI'" font-size="11" font-weight="700" lengthAdjust="spacing" textLength="52.5669" x="195.9478" y="510.8838">quiz_node</text><line style="stroke:#181818;stroke-width:0.5;" x1="159.5" x2="284.9624" y1="518.6445" y2="518.6445"/><g data-visibility-modifier="IE_MANDATORY"><ellipse cx="169.5" cy="531.46" fill="#000000" rx="3" ry="3" style="stroke:#000000;stroke-width:1;"/></g><text fill="#000000" font-family="'Segoe UI'" font-size="11" lengthAdjust="spacing" textLength="35.8252" x="178.5" y="534.5146">id &#171;PK&#187;</text><line style="stroke:#181818;stroke-width:1;" x1="159.5" x2="284.9624" y1="541.2754" y2="541.2754"/><text fill="#000000" font-family="'Segoe UI'" font-size="11" lengthAdjust="spacing" textLength="71.1938" x="164.5" y="557.1455">parent_id &#171;FK&#187;</text><text fill="#000000" font-family="'Segoe UI'" font-size="11" lengthAdjust="spacing" textLength="115.4624" x="164.5" y="571.7764">is_item / position / path</text><text fill="#000000" font-family="'Segoe UI'" font-size="11" lengthAdjust="spacing" textLength="78.1763" x="164.5" y="586.4072">quiz_id &#171;FK,UQ&#187;</text><text fill="#000000" font-family="'Segoe UI'" font-size="11" lengthAdjust="spacing" textLength="18.5356" x="164.5" y="601.0381">title</text></g><!--class qq--><g class="entity" data-qualified-name="Quiz .Luy.n t.p..qq" data-source-line="52" id="ent0007"><rect fill="#F1F1F1" height="143.0469" rx="2.5" ry="2.5" style="stroke:#181818;stroke-width:0.5;" width="203.3213" x="338.5" y="479.5137"/><text fill="#000000" font-family="'Segoe UI'" font-size="11" font-weight="700" lengthAdjust="spacing" textLength="71.4678" x="404.4268" y="496.3838">quiz_question</text><line style="stroke:#181818;stroke-width:0.5;" x1="339.5" x2="540.8213" y1="504.1445" y2="504.1445"/><g data-visibility-modifier="IE_MANDATORY"><ellipse cx="349.5" cy="516.96" fill="#000000" rx="3" ry="3" style="stroke:#000000;stroke-width:1;"/></g><text fill="#000000" font-family="'Segoe UI'" font-size="11" lengthAdjust="spacing" textLength="35.8252" x="358.5" y="520.0146">id &#171;PK&#187;</text><line style="stroke:#181818;stroke-width:1;" x1="339.5" x2="540.8213" y1="526.7754" y2="526.7754"/><g data-visibility-modifier="IE_MANDATORY"><ellipse cx="349.5" cy="539.5908" fill="#000000" rx="3" ry="3" style="stroke:#000000;stroke-width:1;"/></g><text fill="#000000" font-family="'Segoe UI'" font-size="11" lengthAdjust="spacing" textLength="59.9414" x="358.5" y="542.6455">quiz_id &#171;FK&#187;</text><text fill="#000000" font-family="'Segoe UI'" font-size="11" lengthAdjust="spacing" textLength="177.3213" x="358.5" y="557.2764">question_type : single|multi|fill_blank</text><text fill="#000000" font-family="'Segoe UI'" font-size="11" lengthAdjust="spacing" textLength="107.3843" x="358.5" y="571.9072">status : content_status</text><text fill="#000000" font-family="'Segoe UI'" font-size="11" lengthAdjust="spacing" textLength="72.064" x="358.5" y="586.5381">content : jsonb</text><text fill="#000000" font-family="'Segoe UI'" font-size="11" lengthAdjust="spacing" textLength="56.4126" x="358.5" y="601.1689">explanation</text><text fill="#000000" font-family="'Segoe UI'" font-size="11" lengthAdjust="spacing" textLength="152.7539" x="358.5" y="615.7998">case_sensitive / score / position</text></g><!--class qopt--><g class="entity" data-qualified-name="Quiz .Luy.n t.p..qopt" data-source-line="63" id="ent0008"><rect fill="#F1F1F1" height="76.5234" rx="2.5" ry="2.5" style="stroke:#181818;stroke-width:0.5;" width="168.7476" x="187.5" y="719.5137"/><text fill="#000000" font-family="'Segoe UI'" font-size="11" font-weight="700" lengthAdjust="spacing" textLength="110.3652" x="216.6912" y="736.3838">quiz_question_option</text><line style="stroke:#181818;stroke-width:0.5;" x1="188.5" x2="355.2476" y1="744.1445" y2="744.1445"/><g data-visibility-modifier="IE_MANDATORY"><ellipse cx="198.5" cy="756.96" fill="#000000" rx="3" ry="3" style="stroke:#000000;stroke-width:1;"/></g><text fill="#000000" font-family="'Segoe UI'" font-size="11" lengthAdjust="spacing" textLength="35.8252" x="207.5" y="760.0146">id &#171;PK&#187;</text><g data-visibility-modifier="IE_MANDATORY"><ellipse cx="198.5" cy="771.5908" fill="#000000" rx="3" ry="3" style="stroke:#000000;stroke-width:1;"/></g><text fill="#000000" font-family="'Segoe UI'" font-size="11" lengthAdjust="spacing" textLength="81.7856" x="207.5" y="774.6455">question_id &#171;FK&#187;</text><text fill="#000000" font-family="'Segoe UI'" font-size="11" lengthAdjust="spacing" textLength="142.7476" x="207.5" y="789.2764">content / is_correct / position</text></g><!--class qans--><g class="entity" data-qualified-name="Quiz .Luy.n t.p..qans" data-source-line="69" id="ent0009"><rect fill="#F1F1F1" height="84.5234" rx="2.5" ry="2.5" style="stroke:#181818;stroke-width:0.5;" width="124.7554" x="391.5" y="715.5137"/><text fill="#000000" font-family="'Segoe UI'" font-size="11" font-weight="700" lengthAdjust="spacing" textLength="112.5459" x="397.6047" y="732.3838">quiz_question_answer</text><line style="stroke:#181818;stroke-width:0.5;" x1="392.5" x2="515.2554" y1="740.1445" y2="740.1445"/><g data-visibility-modifier="IE_MANDATORY"><ellipse cx="402.5" cy="752.96" fill="#000000" rx="3" ry="3" style="stroke:#000000;stroke-width:1;"/></g><text fill="#000000" font-family="'Segoe UI'" font-size="11" lengthAdjust="spacing" textLength="35.8252" x="411.5" y="756.0146">id &#171;PK&#187;</text><g data-visibility-modifier="IE_MANDATORY"><ellipse cx="402.5" cy="767.5908" fill="#000000" rx="3" ry="3" style="stroke:#000000;stroke-width:1;"/></g><text fill="#000000" font-family="'Segoe UI'" font-size="11" lengthAdjust="spacing" textLength="81.7856" x="411.5" y="770.6455">question_id &#171;FK&#187;</text><line style="stroke:#181818;stroke-width:0.5;" x1="392.5" x2="515.2554" y1="777.4063" y2="777.4063"/><text fill="#000000" font-family="'Segoe UI'" font-size="11" lengthAdjust="spacing" textLength="112.7554" x="397.5" y="793.2764">answer : text (fill_blank)</text></g><!--class att--><g class="entity" data-qualified-name="Quiz .Luy.n t.p..att" data-source-line="75" id="ent0010"><rect fill="#F1F1F1" height="113.7852" rx="2.5" ry="2.5" style="stroke:#181818;stroke-width:0.5;" width="156.3242" x="577" y="494.0137"/><text fill="#000000" font-family="'Segoe UI'" font-size="11" font-weight="700" lengthAdjust="spacing" textLength="94.4238" x="607.9502" y="510.8838">user_quiz_attempt</text><line style="stroke:#181818;stroke-width:0.5;" x1="578" x2="732.3242" y1="518.6445" y2="518.6445"/><g data-visibility-modifier="IE_MANDATORY"><ellipse cx="588" cy="531.46" fill="#000000" rx="3" ry="3" style="stroke:#000000;stroke-width:1;"/></g><text fill="#000000" font-family="'Segoe UI'" font-size="11" lengthAdjust="spacing" textLength="35.8252" x="597" y="534.5146">id &#171;PK&#187;</text><line style="stroke:#181818;stroke-width:1;" x1="578" x2="732.3242" y1="541.2754" y2="541.2754"/><g data-visibility-modifier="IE_MANDATORY"><ellipse cx="588" cy="554.0908" fill="#000000" rx="3" ry="3" style="stroke:#000000;stroke-width:1;"/></g><text fill="#000000" font-family="'Segoe UI'" font-size="11" lengthAdjust="spacing" textLength="130.3242" x="597" y="557.1455">quiz_id &#171;FK&#187; / user_id &#171;FK&#187;</text><text fill="#000000" font-family="'Segoe UI'" font-size="11" lengthAdjust="spacing" textLength="65.2158" x="597" y="571.7764">config : jsonb</text><text fill="#000000" font-family="'Segoe UI'" font-size="11" lengthAdjust="spacing" textLength="109.9839" x="597" y="586.4072">started_at / finished_at</text><text fill="#000000" font-family="'Segoe UI'" font-size="11" lengthAdjust="spacing" textLength="73.5249" x="597" y="601.0381">total_score : int</text></g><!--class uqa--><g class="entity" data-qualified-name="Quiz .Luy.n t.p..uqa" data-source-line="84" id="ent0011"><rect fill="#F1F1F1" height="136.416" rx="2.5" ry="2.5" style="stroke:#181818;stroke-width:0.5;" width="123.5576" x="579" y="690.0137"/><text fill="#000000" font-family="'Segoe UI'" font-size="11" font-weight="700" lengthAdjust="spacing" textLength="89.3267" x="596.1155" y="706.8838">user_quiz_answer</text><line style="stroke:#181818;stroke-width:0.5;" x1="580" x2="701.5576" y1="714.6445" y2="714.6445"/><g data-visibility-modifier="IE_MANDATORY"><ellipse cx="590" cy="727.46" fill="#000000" rx="3" ry="3" style="stroke:#000000;stroke-width:1;"/></g><text fill="#000000" font-family="'Segoe UI'" font-size="11" lengthAdjust="spacing" textLength="35.8252" x="599" y="730.5146">id &#171;PK&#187;</text><line style="stroke:#181818;stroke-width:1;" x1="580" x2="701.5576" y1="737.2754" y2="737.2754"/><g data-visibility-modifier="IE_MANDATORY"><ellipse cx="590" cy="750.0908" fill="#000000" rx="3" ry="3" style="stroke:#000000;stroke-width:1;"/></g><text fill="#000000" font-family="'Segoe UI'" font-size="11" lengthAdjust="spacing" textLength="78.0742" x="599" y="753.1455">attempt_id &#171;FK&#187;</text><g data-visibility-modifier="IE_MANDATORY"><ellipse cx="590" cy="764.7217" fill="#000000" rx="3" ry="3" style="stroke:#000000;stroke-width:1;"/></g><text fill="#000000" font-family="'Segoe UI'" font-size="11" lengthAdjust="spacing" textLength="81.7856" x="599" y="767.7764">question_id &#171;FK&#187;</text><text fill="#000000" font-family="'Segoe UI'" font-size="11" lengthAdjust="spacing" textLength="94.8589" x="599" y="782.4072">answer_data : jsonb</text><text fill="#000000" font-family="'Segoe UI'" font-size="11" lengthAdjust="spacing" textLength="94.7192" x="599" y="797.0381">score_obtained : int</text><line style="stroke:#181818;stroke-width:1;" x1="580" x2="701.5576" y1="803.7988" y2="803.7988"/><text fill="#000000" font-family="'Segoe UI'" font-size="11" lengthAdjust="spacing" textLength="111.5576" x="585" y="819.6689">UQ (attempt, question)</text></g><!--class uqp--><g class="entity" data-qualified-name="Quiz .Luy.n t.p..uqp" data-source-line="95" id="ent0012"><rect fill="#F1F1F1" height="113.7852" rx="2.5" ry="2.5" style="stroke:#181818;stroke-width:0.5;" width="158.0054" x="768" y="494.0137"/><text fill="#000000" font-family="'Segoe UI'" font-size="11" font-weight="700" lengthAdjust="spacing" textLength="97.5552" x="798.2251" y="510.8838">user_quiz_progress</text><line style="stroke:#181818;stroke-width:0.5;" x1="769" x2="925.0054" y1="518.6445" y2="518.6445"/><g data-visibility-modifier="IE_MANDATORY"><ellipse cx="779" cy="531.46" fill="#000000" rx="3" ry="3" style="stroke:#000000;stroke-width:1;"/></g><text fill="#000000" font-family="'Segoe UI'" font-size="11" lengthAdjust="spacing" textLength="35.8252" x="788" y="534.5146">id &#171;PK&#187;</text><text fill="#000000" font-family="'Segoe UI'" font-size="11" lengthAdjust="spacing" textLength="130.3242" x="788" y="549.1455">user_id &#171;FK&#187; / quiz_id &#171;FK&#187;</text><text fill="#000000" font-family="'Segoe UI'" font-size="11" lengthAdjust="spacing" textLength="132.0054" x="788" y="563.7764">best_score / attempt_count</text><text fill="#000000" font-family="'Segoe UI'" font-size="11" lengthAdjust="spacing" textLength="65.7314" x="788" y="578.4072">completed_at</text><line style="stroke:#181818;stroke-width:0.5;" x1="769" x2="925.0054" y1="585.168" y2="585.168"/><text fill="#000000" font-family="'Segoe UI'" font-size="11" lengthAdjust="spacing" textLength="71.7095" x="774" y="601.0381">UQ (user, quiz)</text></g><!--class qcfg--><g class="entity" data-qualified-name="Quiz .Luy.n t.p..qcfg" data-source-line="103" id="ent0013"><rect fill="#F1F1F1" height="157.6777" rx="2.5" ry="2.5" style="stroke:#181818;stroke-width:0.5;" width="223.2158" x="961.5" y="472.0137"/><text fill="#000000" font-family="'Segoe UI'" font-size="11" font-weight="700" lengthAdjust="spacing" textLength="59.2378" x="1043.489" y="488.8838">quiz_config</text><line style="stroke:#181818;stroke-width:0.5;" x1="962.5" x2="1183.7158" y1="496.6445" y2="496.6445"/><g data-visibility-modifier="IE_MANDATORY"><ellipse cx="972.5" cy="509.46" fill="#000000" rx="3" ry="3" style="stroke:#000000;stroke-width:1;"/></g><text fill="#000000" font-family="'Segoe UI'" font-size="11" lengthAdjust="spacing" textLength="35.8252" x="981.5" y="512.5146">id &#171;PK&#187;</text><text fill="#000000" font-family="'Segoe UI'" font-size="11" lengthAdjust="spacing" textLength="130.3242" x="981.5" y="527.1455">quiz_id &#171;FK&#187; / user_id &#171;FK&#187;</text><text fill="#000000" font-family="'Segoe UI'" font-size="11" lengthAdjust="spacing" textLength="151.3359" x="981.5" y="541.7764">total_questions / time_limit_sec</text><text fill="#000000" font-family="'Segoe UI'" font-size="11" lengthAdjust="spacing" textLength="169.689" x="981.5" y="556.4072">random_question / random_option</text><text fill="#000000" font-family="'Segoe UI'" font-size="11" lengthAdjust="spacing" textLength="179.3247" x="981.5" y="571.0381">question_filter / immediate_feedback</text><text fill="#000000" font-family="'Segoe UI'" font-size="11" lengthAdjust="spacing" textLength="197.2158" x="981.5" y="585.6689">allow_review / allow_retry / max_attempt</text><text fill="#000000" font-family="'Segoe UI'" font-size="11" lengthAdjust="spacing" textLength="96.0835" x="981.5" y="600.2998">is_default / is_active</text><line style="stroke:#181818;stroke-width:0.5;" x1="962.5" x2="1183.7158" y1="607.0605" y2="607.0605"/><text fill="#000000" font-family="'Segoe UI'" font-size="11" lengthAdjust="spacing" textLength="71.7095" x="967.5" y="622.9307">UQ (quiz, user)</text></g><!--class cfg--><g class="entity" data-qualified-name="H. th.ng . Th.ng b.o . Audit.cfg" data-source-line="118" id="ent0015"><rect fill="#F1F1F1" height="113.7852" rx="2.5" ry="2.5" style="stroke:#181818;stroke-width:0.5;" width="193.312" x="1789.5" y="69.0137"/><text fill="#000000" font-family="'Segoe UI'" font-size="11" font-weight="700" lengthAdjust="spacing" textLength="73.2832" x="1849.5144" y="85.8838">system_config</text><line style="stroke:#181818;stroke-width:0.5;" x1="1790.5" x2="1981.812" y1="93.6445" y2="93.6445"/><g data-visibility-modifier="IE_MANDATORY"><ellipse cx="1800.5" cy="106.46" fill="#000000" rx="3" ry="3" style="stroke:#000000;stroke-width:1;"/></g><text fill="#000000" font-family="'Segoe UI'" font-size="11" lengthAdjust="spacing" textLength="111.4824" x="1809.5" y="109.5146">key : varchar(150) &#171;PK&#187;</text><line style="stroke:#181818;stroke-width:1;" x1="1790.5" x2="1981.812" y1="116.2754" y2="116.2754"/><text fill="#000000" font-family="'Segoe UI'" font-size="11" lengthAdjust="spacing" textLength="60.3872" x="1795.5" y="132.1455">value : jsonb</text><text fill="#000000" font-family="'Segoe UI'" font-size="11" lengthAdjust="spacing" textLength="181.312" x="1795.5" y="146.7764">value_type : bool|int|string|json|secret</text><text fill="#000000" font-family="'Segoe UI'" font-size="11" lengthAdjust="spacing" textLength="42.2275" x="1795.5" y="161.4072">category</text><text fill="#000000" font-family="'Segoe UI'" font-size="11" lengthAdjust="spacing" textLength="111.1011" x="1795.5" y="176.0381">is_runtime / is_editable</text></g><!--class notif--><g class="entity" data-qualified-name="H. th.ng . Th.ng b.o . Audit.notif" data-source-line="127" id="ent0016"><rect fill="#F1F1F1" height="165.6777" rx="2.5" ry="2.5" style="stroke:#181818;stroke-width:0.5;" width="246.1152" x="1508" y="43.0137"/><text fill="#000000" font-family="'Segoe UI'" font-size="11" font-weight="700" lengthAdjust="spacing" textLength="60.1133" x="1601.001" y="59.8838">notification</text><line style="stroke:#181818;stroke-width:0.5;" x1="1509" x2="1753.1152" y1="67.6445" y2="67.6445"/><g data-visibility-modifier="IE_MANDATORY"><ellipse cx="1519" cy="80.46" fill="#000000" rx="3" ry="3" style="stroke:#000000;stroke-width:1;"/></g><text fill="#000000" font-family="'Segoe UI'" font-size="11" lengthAdjust="spacing" textLength="35.8252" x="1528" y="83.5146">id &#171;PK&#187;</text><line style="stroke:#181818;stroke-width:1;" x1="1509" x2="1753.1152" y1="90.2754" y2="90.2754"/><text fill="#000000" font-family="'Segoe UI'" font-size="11" lengthAdjust="spacing" textLength="160.311" x="1514" y="106.1455">user_id &#171;FK&#187;  (NULL = broadcast)</text><text fill="#000000" font-family="'Segoe UI'" font-size="11" lengthAdjust="spacing" textLength="234.1152" x="1514" y="120.7764">type : system|achievement|course|challenge|quiz</text><text fill="#000000" font-family="'Segoe UI'" font-size="11" lengthAdjust="spacing" textLength="71.2368" x="1514" y="135.4072">title / message</text><text fill="#000000" font-family="'Segoe UI'" font-size="11" lengthAdjust="spacing" textLength="80.8296" x="1514" y="150.0381">metadata : jsonb</text><text fill="#000000" font-family="'Segoe UI'" font-size="11" lengthAdjust="spacing" textLength="47.835" x="1514" y="164.6689">event_key</text><text fill="#000000" font-family="'Segoe UI'" font-size="11" lengthAdjust="spacing" textLength="149.4937" x="1514" y="179.2998">is_read / read_at / is_broadcast</text><line style="stroke:#181818;stroke-width:1;" x1="1509" x2="1753.1152" y1="186.0605" y2="186.0605"/><text fill="#000000" font-family="'Segoe UI'" font-size="11" lengthAdjust="spacing" textLength="112.9111" x="1514" y="201.9307">UQ (user_id, event_key)</text></g><!--class audit--><g class="entity" data-qualified-name="H. th.ng . Th.ng b.o . Audit.audit" data-source-line="140" id="ent0017"><rect fill="#F1F1F1" height="143.0469" rx="2.5" ry="2.5" style="stroke:#181818;stroke-width:0.5;" width="198.2749" x="1275" y="54.5137"/><text fill="#000000" font-family="'Segoe UI'" font-size="11" font-weight="700" lengthAdjust="spacing" textLength="48.0176" x="1350.1287" y="71.3838">audit_log</text><line style="stroke:#181818;stroke-width:0.5;" x1="1276" x2="1472.2749" y1="79.1445" y2="79.1445"/><g data-visibility-modifier="IE_MANDATORY"><ellipse cx="1286" cy="91.96" fill="#000000" rx="3" ry="3" style="stroke:#000000;stroke-width:1;"/></g><text fill="#000000" font-family="'Segoe UI'" font-size="11" lengthAdjust="spacing" textLength="110.5317" x="1295" y="95.0146">id &#171;PK&#187;  (append-only)</text><line style="stroke:#181818;stroke-width:1;" x1="1276" x2="1472.2749" y1="101.7754" y2="101.7754"/><text fill="#000000" font-family="'Segoe UI'" font-size="11" lengthAdjust="spacing" textLength="51.5518" x="1281" y="117.6455">timestamp</text><text fill="#000000" font-family="'Segoe UI'" font-size="11" lengthAdjust="spacing" textLength="186.2749" x="1281" y="132.2764">actor_type / actor_id / actor_username</text><text fill="#000000" font-family="'Segoe UI'" font-size="11" lengthAdjust="spacing" textLength="149.2197" x="1281" y="146.9072">aggregate_type / aggregate_id</text><text fill="#000000" font-family="'Segoe UI'" font-size="11" lengthAdjust="spacing" textLength="29.7397" x="1281" y="161.5381">action</text><text fill="#000000" font-family="'Segoe UI'" font-size="11" lengthAdjust="spacing" textLength="80.8296" x="1281" y="176.1689">metadata : jsonb</text><text fill="#000000" font-family="'Segoe UI'" font-size="11" lengthAdjust="spacing" textLength="114.2861" x="1281" y="190.7998">ip_address / user_agent</text></g><g class="entity" data-qualified-name="GMN31" data-source-line="168" id="ent0032"><path d="M1220,528.5137 L1220,573.0957 L1512.3052,573.0957 L1512.3052,538.5137 L1502.3052,528.5137 L1220,528.5137" fill="#FAFAFA" style="stroke:#181818;stroke-width:0.5;"/><path d="M1502.3052,528.5137 L1502.3052,538.5137 L1512.3052,538.5137 L1502.3052,528.5137" fill="#FAFAFA" style="stroke:#181818;stroke-width:1;"/><text fill="#000000" font-family="'Segoe UI'" font-size="13" lengthAdjust="spacing" textLength="271.3052" x="1226" y="547.542">Kh&#244;ng c&#243; FK quiz &#8594; quiz_node (tr&#225;nh FK v&#242;ng).</text><text fill="#000000" font-family="'Segoe UI'" font-size="13" lengthAdjust="spacing" textLength="230.2358" x="1226" y="564.833">Ch&#7881; m&#7897;t chi&#7873;u quiz_node.quiz_id &#8594; quiz.</text></g><g class="entity" data-qualified-name="GMN34" data-source-line="173" id="ent0035"><path d="M1217.5,309.5137 L1217.5,371.3867 A0,0 0 0 0 1217.5,371.3867 L1530.0732,371.3867 A0,0 0 0 0 1530.0732,371.3867 L1530.0732,319.5137 L1520.0732,309.5137 L1378,309.5137 L1374,197.7337 L1370,309.5137 L1217.5,309.5137 A0,0 0 0 0 1217.5,309.5137" fill="#FAFAFA" style="stroke:#181818;stroke-width:0.5;"/><path d="M1520.0732,309.5137 L1520.0732,319.5137 L1530.0732,319.5137 L1520.0732,309.5137" fill="#FAFAFA" style="stroke:#181818;stroke-width:0.5;"/><text fill="#000000" font-family="'Segoe UI'" font-size="13" lengthAdjust="spacing" textLength="291.5732" x="1223.5" y="328.542">notification / audit_log / system_config l&#224; c&#225;c b&#7843;ng</text><text fill="#000000" font-family="'Segoe UI'" font-size="13" lengthAdjust="spacing" textLength="282.5088" x="1223.5" y="345.833">d&#249;ng chung (cross-cutting) &#8212; li&#234;n k&#7871;t t&#7899;i user(id)</text><text fill="#000000" font-family="'Segoe UI'" font-size="13" lengthAdjust="spacing" textLength="228.7568" x="1223.5" y="363.124">&#7903; ERD 1 nh&#432;ng t&#225;ch ra cho d&#7877; tr&#236;nh b&#224;y.</text></g><!--link qcat to quiz--><g class="link" data-entity-1="ent0002" data-entity-2="ent0005" data-link-type="crowfoot" data-source-line="153" id="lnk18"><path codeLine="153" d="M547,165.2037 C547,194.3637 547,212.9937 547,250.9137" fill="none" id="qcat-quiz" style="stroke:#181818;stroke-width:1;"/><line style="stroke:#181818;stroke-width:1;" x1="543" x2="551" y1="161.2037" y2="161.2037"/><line style="stroke:#181818;stroke-width:1;" x1="543" x2="551" y1="164.2037" y2="164.2037"/><line style="stroke:#181818;stroke-width:1;" x1="547" x2="547" y1="165.2037" y2="157.2037"/><line style="stroke:#181818;stroke-width:1;" x1="547" x2="553" y1="260.9137" y2="268.9137"/><line style="stroke:#181818;stroke-width:1;" x1="547" x2="541" y1="260.9137" y2="268.9137"/><line style="stroke:#181818;stroke-width:1;" x1="547" x2="547" y1="260.9137" y2="268.9137"/><ellipse cx="547" cy="254.9137" fill="none" rx="4" ry="4" style="stroke:#181818;stroke-width:1;"/><text fill="#000000" font-family="'Segoe UI'" font-size="13" lengthAdjust="spacing" textLength="3.561" x="543" y="209.082">&#160;</text></g><!--link quiz to qtagm--><g class="link" data-entity-1="ent0005" data-entity-2="ent0004" data-link-type="crowfoot" data-source-line="154" id="lnk19"><path codeLine="154" d="M469.57,385.0137 C341.68,385.0137 89.83,385.0137 89.83,385.0137 C89.83,385.0137 89.83,444.5837 89.83,493.6737" fill="none" id="quiz-qtagm" style="stroke:#181818;stroke-width:1;"/><line style="stroke:#181818;stroke-width:1;" x1="473.57" x2="473.57" y1="381.0137" y2="389.0137"/><line style="stroke:#181818;stroke-width:1;" x1="470.57" x2="470.57" y1="381.0137" y2="389.0137"/><line style="stroke:#181818;stroke-width:1;" x1="469.57" x2="477.57" y1="385.0137" y2="385.0137"/><line style="stroke:#181818;stroke-width:1;" x1="89.83" x2="95.83" y1="503.6737" y2="511.6737"/><line style="stroke:#181818;stroke-width:1;" x1="89.83" x2="83.83" y1="503.6737" y2="511.6737"/><line style="stroke:#181818;stroke-width:1;" x1="89.83" x2="89.83" y1="503.6737" y2="511.6737"/><ellipse cx="89.83" cy="497.6737" fill="none" rx="4" ry="4" style="stroke:#181818;stroke-width:1;"/><text fill="#000000" font-family="'Segoe UI'" font-size="13" lengthAdjust="spacing" textLength="3.561" x="216.37" y="381.042">&#160;</text></g><!--link qtag to qtagm--><g class="link" data-entity-1="ent0003" data-entity-2="ent0004" data-link-type="crowfoot" data-source-line="155" id="lnk20"><path codeLine="155" d="M56.17,379.5737 C56.17,416.8537 56.17,453.4037 56.17,493.9337" fill="none" id="qtag-qtagm" style="stroke:#181818;stroke-width:1;"/><line style="stroke:#181818;stroke-width:1;" x1="52.17" x2="60.17" y1="375.5737" y2="375.5737"/><line style="stroke:#181818;stroke-width:1;" x1="52.17" x2="60.17" y1="378.5737" y2="378.5737"/><line style="stroke:#181818;stroke-width:1;" x1="56.17" x2="56.17" y1="379.5737" y2="371.5737"/><line style="stroke:#181818;stroke-width:1;" x1="56.17" x2="62.17" y1="503.9337" y2="511.9337"/><line style="stroke:#181818;stroke-width:1;" x1="56.17" x2="50.17" y1="503.9337" y2="511.9337"/><line style="stroke:#181818;stroke-width:1;" x1="56.17" x2="56.17" y1="503.9337" y2="511.9337"/><ellipse cx="56.17" cy="497.9337" fill="none" rx="4" ry="4" style="stroke:#181818;stroke-width:1;"/><text fill="#000000" font-family="'Segoe UI'" font-size="13" lengthAdjust="spacing" textLength="3.561" x="52.17" y="437.782">&#160;</text></g><!--link quiz to qnode--><g class="link" data-entity-1="ent0005" data-entity-2="ent0006" data-link-type="association" data-source-line="156" id="lnk21"><path codeLine="156" d="M469.67,399.0137 C375.71,399.0137 227.5,399.0137 227.5,399.0137 C227.5,399.0137 227.5,435.8537 227.5,478.9837" fill="none" id="quiz-qnode" style="stroke:#181818;stroke-width:1;"/><line style="stroke:#181818;stroke-width:1;" x1="473.67" x2="473.67" y1="395.0137" y2="403.0137"/><line style="stroke:#181818;stroke-width:1;" x1="470.67" x2="470.67" y1="395.0137" y2="403.0137"/><line style="stroke:#181818;stroke-width:1;" x1="469.67" x2="477.67" y1="399.0137" y2="399.0137"/><line style="stroke:#181818;stroke-width:1;" x1="227.5" x2="227.5" y1="482.9837" y2="493.9837"/><ellipse cx="227.5" cy="482.9837" fill="none" rx="4" ry="4" style="stroke:#181818;stroke-width:1;"/><line style="stroke:#181818;stroke-width:1;" x1="231.5" x2="223.5" y1="489.9837" y2="489.9837"/><text fill="#000000" font-family="'Segoe UI'" font-size="13" lengthAdjust="spacing" textLength="58.5381" x="246.1" y="395.042">node item</text></g><!--link qnode to qnode--><g class="link" data-entity-1="ent0006" data-entity-2="ent0006" data-link-type="crowfoot" data-source-line="157" id="lnk22"><path codeLine="157" d="M164,475.8637 C164,475.8637 141,487.0137 141,487.0137 C141,487.0137 141,616.0137 141,616.0137 C141,616.0137 173,616.0137 173,616.0137 C173,616.0137 173,627.9037 173,623.0437" fill="none" id="qnode-qnode" style="stroke:#181818;stroke-width:1;"/><line style="stroke:#181818;stroke-width:1;" x1="164" x2="170" y1="485.8637" y2="493.8637"/><line style="stroke:#181818;stroke-width:1;" x1="164" x2="158" y1="485.8637" y2="493.8637"/><line style="stroke:#181818;stroke-width:1;" x1="164" x2="164" y1="485.8637" y2="493.8637"/><ellipse cx="164" cy="479.8637" fill="none" rx="4" ry="4" style="stroke:#181818;stroke-width:1;"/><line style="stroke:#181818;stroke-width:1;" x1="173" x2="173" y1="619.0437" y2="608.0437"/><ellipse cx="173" cy="619.0437" fill="none" rx="4" ry="4" style="stroke:#181818;stroke-width:1;"/><line style="stroke:#181818;stroke-width:1;" x1="169" x2="177" y1="612.0437" y2="612.0437"/><text fill="#000000" font-family="'Segoe UI'" font-size="13" lengthAdjust="spacing" textLength="37.3369" x="122.5" y="576.602">parent</text></g><!--link quiz to qq--><g class="link" data-entity-1="ent0005" data-entity-2="ent0007" data-link-type="crowfoot" data-source-line="158" id="lnk23"><path codeLine="158" d="M509.75,420.0737 C509.75,441.7637 509.75,439.5937 509.75,461.2937" fill="none" id="quiz-qq" style="stroke:#181818;stroke-width:1;"/><line style="stroke:#181818;stroke-width:1;" x1="505.75" x2="513.75" y1="416.0737" y2="416.0737"/><line style="stroke:#181818;stroke-width:1;" x1="505.75" x2="513.75" y1="419.0737" y2="419.0737"/><line style="stroke:#181818;stroke-width:1;" x1="509.75" x2="509.75" y1="420.0737" y2="412.0737"/><line style="stroke:#181818;stroke-width:1;" x1="509.75" x2="515.75" y1="471.2937" y2="479.2937"/><line style="stroke:#181818;stroke-width:1;" x1="509.75" x2="503.75" y1="471.2937" y2="479.2937"/><line style="stroke:#181818;stroke-width:1;" x1="509.75" x2="509.75" y1="471.2937" y2="479.2937"/><ellipse cx="509.75" cy="465.2937" fill="none" rx="4" ry="4" style="stroke:#181818;stroke-width:1;"/><text fill="#000000" font-family="'Segoe UI'" font-size="13" lengthAdjust="spacing" textLength="3.561" x="505.75" y="441.712">&#160;</text></g><!--link qq to qopt--><g class="link" data-entity-1="ent0007" data-entity-2="ent0008" data-link-type="crowfoot" data-source-line="159" id="lnk24"><path codeLine="159" d="M347.5,630.5437 C347.5,663.0237 347.5,674.1737 347.5,701.3437" fill="none" id="qq-qopt" style="stroke:#181818;stroke-width:1;"/><line style="stroke:#181818;stroke-width:1;" x1="343.5" x2="351.5" y1="626.5437" y2="626.5437"/><line style="stroke:#181818;stroke-width:1;" x1="343.5" x2="351.5" y1="629.5437" y2="629.5437"/><line style="stroke:#181818;stroke-width:1;" x1="347.5" x2="347.5" y1="630.5437" y2="622.5437"/><line style="stroke:#181818;stroke-width:1;" x1="347.5" x2="353.5" y1="711.3437" y2="719.3437"/><line style="stroke:#181818;stroke-width:1;" x1="347.5" x2="341.5" y1="711.3437" y2="719.3437"/><line style="stroke:#181818;stroke-width:1;" x1="347.5" x2="347.5" y1="711.3437" y2="719.3437"/><ellipse cx="347.5" cy="705.3437" fill="none" rx="4" ry="4" style="stroke:#181818;stroke-width:1;"/><text fill="#000000" font-family="'Segoe UI'" font-size="13" lengthAdjust="spacing" textLength="67.9453" x="279.5" y="666.972">single/multi</text></g><!--link qq to qans--><g class="link" data-entity-1="ent0007" data-entity-2="ent0009" data-link-type="crowfoot" data-source-line="160" id="lnk25"><path codeLine="160" d="M454,630.5437 C454,661.5137 454,670.7137 454,697.4737" fill="none" id="qq-qans" style="stroke:#181818;stroke-width:1;"/><line style="stroke:#181818;stroke-width:1;" x1="450" x2="458" y1="626.5437" y2="626.5437"/><line style="stroke:#181818;stroke-width:1;" x1="450" x2="458" y1="629.5437" y2="629.5437"/><line style="stroke:#181818;stroke-width:1;" x1="454" x2="454" y1="630.5437" y2="622.5437"/><line style="stroke:#181818;stroke-width:1;" x1="454" x2="460" y1="707.4737" y2="715.4737"/><line style="stroke:#181818;stroke-width:1;" x1="454" x2="448" y1="707.4737" y2="715.4737"/><line style="stroke:#181818;stroke-width:1;" x1="454" x2="454" y1="707.4737" y2="715.4737"/><ellipse cx="454" cy="701.4737" fill="none" rx="4" ry="4" style="stroke:#181818;stroke-width:1;"/><text fill="#000000" font-family="'Segoe UI'" font-size="13" lengthAdjust="spacing" textLength="50.1338" x="403" y="665.032">fill_blank</text></g><!--link quiz to att--><g class="link" data-entity-1="ent0005" data-entity-2="ent0010" data-link-type="crowfoot" data-source-line="161" id="lnk26"><path codeLine="161" d="M590,420.0737 C590,446.7737 590,450.7037 590,475.9237" fill="none" id="quiz-att" style="stroke:#181818;stroke-width:1;"/><line style="stroke:#181818;stroke-width:1;" x1="586" x2="594" y1="416.0737" y2="416.0737"/><line style="stroke:#181818;stroke-width:1;" x1="586" x2="594" y1="419.0737" y2="419.0737"/><line style="stroke:#181818;stroke-width:1;" x1="590" x2="590" y1="420.0737" y2="412.0737"/><line style="stroke:#181818;stroke-width:1;" x1="590" x2="596" y1="485.9237" y2="493.9237"/><line style="stroke:#181818;stroke-width:1;" x1="590" x2="584" y1="485.9237" y2="493.9237"/><line style="stroke:#181818;stroke-width:1;" x1="590" x2="590" y1="485.9237" y2="493.9237"/><ellipse cx="590" cy="479.9237" fill="none" rx="4" ry="4" style="stroke:#181818;stroke-width:1;"/><text fill="#000000" font-family="'Segoe UI'" font-size="13" lengthAdjust="spacing" textLength="3.561" x="586" y="449.032">&#160;</text></g><!--link att to uqa--><g class="link" data-entity-1="ent0010" data-entity-2="ent0011" data-link-type="crowfoot" data-source-line="162" id="lnk27"><path codeLine="162" d="M641,616.1237 C641,641.3737 641,645.2737 641,671.6937" fill="none" id="att-uqa" style="stroke:#181818;stroke-width:1;"/><line style="stroke:#181818;stroke-width:1;" x1="637" x2="645" y1="612.1237" y2="612.1237"/><line style="stroke:#181818;stroke-width:1;" x1="637" x2="645" y1="615.1237" y2="615.1237"/><line style="stroke:#181818;stroke-width:1;" x1="641" x2="641" y1="616.1237" y2="608.1237"/><line style="stroke:#181818;stroke-width:1;" x1="641" x2="647" y1="681.6937" y2="689.6937"/><line style="stroke:#181818;stroke-width:1;" x1="641" x2="635" y1="681.6937" y2="689.6937"/><line style="stroke:#181818;stroke-width:1;" x1="641" x2="641" y1="681.6937" y2="689.6937"/><ellipse cx="641" cy="675.6937" fill="none" rx="4" ry="4" style="stroke:#181818;stroke-width:1;"/><text fill="#000000" font-family="'Segoe UI'" font-size="13" lengthAdjust="spacing" textLength="3.561" x="637" y="644.942">&#160;</text></g><!--link qq to uqa--><g class="link" data-entity-1="ent0007" data-entity-2="ent0011" data-link-type="crowfoot" data-source-line="163" id="lnk28"><path codeLine="163" d="M529,630.5637 C529,669.9837 529,703.0137 529,703.0137 C529,703.0137 535,703.0137 560.78,703.0137" fill="none" id="qq-uqa" style="stroke:#181818;stroke-width:1;"/><line style="stroke:#181818;stroke-width:1;" x1="525" x2="533" y1="626.5637" y2="626.5637"/><line style="stroke:#181818;stroke-width:1;" x1="525" x2="533" y1="629.5637" y2="629.5637"/><line style="stroke:#181818;stroke-width:1;" x1="529" x2="529" y1="630.5637" y2="622.5637"/><line style="stroke:#181818;stroke-width:1;" x1="570.78" x2="578.78" y1="703.0137" y2="697.0137"/><line style="stroke:#181818;stroke-width:1;" x1="570.78" x2="578.78" y1="703.0137" y2="709.0137"/><line style="stroke:#181818;stroke-width:1;" x1="570.78" x2="578.78" y1="703.0137" y2="703.0137"/><ellipse cx="564.78" cy="703.0137" fill="none" rx="4" ry="4" style="stroke:#181818;stroke-width:1;"/><text fill="#000000" font-family="'Segoe UI'" font-size="13" lengthAdjust="spacing" textLength="3.561" x="525" y="683.702">&#160;</text></g><!--link quiz to uqp--><g class="link" data-entity-1="ent0005" data-entity-2="ent0012" data-link-type="crowfoot" data-source-line="164" id="lnk29"><path codeLine="164" d="M624.2,392.0137 C712.8,392.0137 847,392.0137 847,392.0137 C847,392.0137 847,430.0637 847,475.6137" fill="none" id="quiz-uqp" style="stroke:#181818;stroke-width:1;"/><line style="stroke:#181818;stroke-width:1;" x1="620.2" x2="620.2" y1="396.0137" y2="388.0137"/><line style="stroke:#181818;stroke-width:1;" x1="623.2" x2="623.2" y1="396.0137" y2="388.0137"/><line style="stroke:#181818;stroke-width:1;" x1="624.2" x2="616.2" y1="392.0137" y2="392.0137"/><line style="stroke:#181818;stroke-width:1;" x1="847" x2="853" y1="485.6137" y2="493.6137"/><line style="stroke:#181818;stroke-width:1;" x1="847" x2="841" y1="485.6137" y2="493.6137"/><line style="stroke:#181818;stroke-width:1;" x1="847" x2="847" y1="485.6137" y2="493.6137"/><ellipse cx="847" cy="479.6137" fill="none" rx="4" ry="4" style="stroke:#181818;stroke-width:1;"/><text fill="#000000" font-family="'Segoe UI'" font-size="13" lengthAdjust="spacing" textLength="3.561" x="778.4" y="388.042">&#160;</text></g><!--link quiz to qcfg--><g class="link" data-entity-1="ent0005" data-entity-2="ent0013" data-link-type="crowfoot" data-source-line="165" id="lnk30"><path codeLine="165" d="M603,420.2337 C603,452.7337 603,476.0137 603,476.0137 C603,476.0137 804.32,476.0137 943.32,476.0137" fill="none" id="quiz-qcfg" style="stroke:#181818;stroke-width:1;"/><line style="stroke:#181818;stroke-width:1;" x1="599" x2="607" y1="416.2337" y2="416.2337"/><line style="stroke:#181818;stroke-width:1;" x1="599" x2="607" y1="419.2337" y2="419.2337"/><line style="stroke:#181818;stroke-width:1;" x1="603" x2="603" y1="420.2337" y2="412.2337"/><line style="stroke:#181818;stroke-width:1;" x1="953.32" x2="961.32" y1="476.0137" y2="470.0137"/><line style="stroke:#181818;stroke-width:1;" x1="953.32" x2="961.32" y1="476.0137" y2="482.0137"/><line style="stroke:#181818;stroke-width:1;" x1="953.32" x2="961.32" y1="476.0137" y2="476.0137"/><ellipse cx="947.32" cy="476.0137" fill="none" rx="4" ry="4" style="stroke:#181818;stroke-width:1;"/><text fill="#000000" font-family="'Segoe UI'" font-size="13" lengthAdjust="spacing" textLength="115.1909" x="634.27" y="472.042">config / ng&#432;&#7901;i d&#249;ng</text></g><!--link qnode to GMN31--><g class="link" data-entity-1="ent0006" data-entity-2="ent0032" data-link-type="association" data-source-line="168" id="lnk33"><path d="M236.5,608.0637 C236.5,634.4437 236.5,660.0137 236.5,660.0137 C236.5,660.0137 1366,660.0137 1366,660.0137 C1366,660.0137 1366,605.5237 1366,573.5937" fill="none" id="qnode-GMN31" style="stroke:#181818;stroke-width:1;stroke-dasharray:7,7;"/></g><?plantuml-src hHTDQnj7zAvVyT0bacj9DIOGWXDmOwSnSUmuaYZjPPdT7QqctfrPxypQKQ90SsX2R_t8fPJIX1mAfONG5agZGo627FiVb5_IDpExgzM7xGIYW_JcpPlt_QKBSEK3V2eN0BRlRC5wQntUVlaK3hexNq0jJ0UJqHCEQlBgznW-esvRU8TKrU7rtt1ZCdeC7Vp-PkzJVUxS63z5w9FnetrztEnkxNGqrxqWdOo-vvV15vviRMrsDfrR-rlRkyt8XzU_h3SlDjQRb-0ZS0covdwBnAmL2P-6iXaFaC47iQxFV0eUIxoGMfX6iHf0H5LV-B8Y3ncFIK8YY0GNNZyH4GMLfBHq8_l45oUC1z0ZeIpVX8nJDOWfY0JPbIvysYDfgAuBhlO8SgosQI0eT7Ug9I8l959gahOQX1HS4VhpjvjA9SnD5JLax3w5jRNASjVOm6tjtzhSsLjsNudHpIH0NGvITXzgk-K8rwlme581e5mnz4xr24aSZoZKEXbKWKWumXFI07vMWFcmiN7xvjMhviorXHiRtGDpVhZ0Hv70ia3WV1RGGkz9Bs6nOeAVnj29I5mmZV3fNS4uFixP6xfCnkhrNCmAwATpw0N-bgzsqd9b6mtpWmymQlFQ0aX5L2hXCdWOC-JhM8IvorrgTIZqCjh6Q872P_gxTWN-Um7I4mcjMs52aT0vIgdKSgGbozI8g1EoYA4WwXKNYrxZM5hMD0sTRHkceDPyLaic7QPeX2R7GZAjXmQ9wazjo1wiPhcGEMcfEhajLgMZi_LPcM5VUCroS4m9NWQ99HhIOOI5nuOz5eQE6n9-U7vGB0elxqh1NOEZzs9yIugWUaHIz2_NTX_hg9lOb5nnfesEYAUc8doAiIjJasOjpJLiwHYWu8Hwwfrb4ovFQ69b8_o-ikrpT8wYzp0nftwjpujD9KqS8viefTkiaOdm-yKM3JES5bpGOy5CZ324YQ8-IiCdFSQPx9jJgM1ib9RMH4dRgOFI8tAUifbjS-gTupx79uhCAgyrSuIh2CuGlrJFcQ3k0TGoKQi5xpDS7YSYIAYKcHdnAMRCUXRzjgIkN1JcvFcTc-k9D5FG4r4SKZLrjLPLyrqrpEfBiz66BvialTF6mBiamdmdRCrrG4EK4EwBgA12eWmZfdsw21YcjC8Cn-AA8kepRD5EZr9VhoKsX64eJfo47ZDweZsI7LKom5D4xkNfdZV9RFZRQYMURXY5dxI5gyOiwwU7fqtpzkVjplOjv77jpdwxtRZMxNHsSCawSx3ZIlO4L7yo-XPt5RsOzST_8UIEdmkpcAK-KtE3NWuawbuEJpawXtI0cNbC4gzFajhQnO_hIqhYc8GfdSbjWycxiYj4ECJa7afSPNWmr6H3Z1CwS6OavjvBCCymeDPx60v5tCK9meLYFUQHegiQnDcbEvVwKDlhxkx25N0JGNpixogRjDamCOuP4g_Fw36DKF0GIo2HT8Y-24FA0phKmPnP1I8iG8o4mU66IHQg7bdXx46t5jPIuklin1_Rnn1NA3JV3p8BLgTi5egDw1WxeR2nDAT5hw3j98vnvMu87WxgiqiDsg185DlCzvH8R21RsO7v1QZLqOkR9Gsm_GIwTdBo0i7yd5bUUajzmsA7-BxkONdXeokplctAf55yxAvxPtjtixEplzU-iNExNRgjc5rrE6mqn0Exnm4AgbOh1ixnPc_Cy7enNOOlw8VPqgJn1j2B418O-A4eKI21NPxcn1rf4pEs6ixnUXimUBkzjCpsCaUZfxQXcGxVMUvwnkRS3PpXzJXR9dK6N-AZvyPIP-ccOF3P66u13zwyd8n-Ok2F_-51jLB12gIGiA2lGFIiCp1qDsqByiP_mlMRDXXl7ty7nK8ADPMCd_E-lZqU_y63UXDVNSCUzZL4az4F2h009wD7wVH9CvyIEQDc1LDPTm2QQU4AfKIarJ05W0pB_KBdPbubUf4hTq08nyzGsUSUk9DNBtY0Jurzg4MAtpKl4L8sl5GfZ5RT_5yEsVXN3eUJL_yg_2yr-f6PtAqnNzVLPFIp-NEz1hp_vYLoKCYxZyC86Ghm9wElyC_c-3Uqtnq_6qmD-Hy0?></g></svg>