<svg xmlns="http://www.w3.org/2000/svg" xmlns:xlink="http://www.w3.org/1999/xlink" contentStyleType="text/css" data-diagram-type="DESCRIPTION" height="1065px" preserveAspectRatio="none" style="width:898px;height:1065px;background:#FFFFFF;" version="1.1" viewBox="0 0 898 1065" width="898px" zoomAndPan="magnify"><?plantuml 1.2026.6?><defs/><g><!--cluster ILS ? H? th?ng h?c an ninh m?ng--><g class="cluster" data-qualified-name="ILS . H. th.ng h.c an ninh m.ng" data-source-line="22" id="ent0008"><rect fill="none" height="1001" rx="2.5" ry="2.5" style="stroke:#181818;stroke-width:1;" width="429" x="455.5" y="7"/><text fill="#000000" font-family="'Segoe UI'" font-size="14" font-weight="700" lengthAdjust="spacing" textLength="224.9023" x="557.5488" y="24.1074">ILS &#8212; H&#7879; th&#7889;ng h&#7885;c an ninh m&#7841;ng</text></g><!--entity UC_REG--><g class="entity" data-qualified-name="ILS . H. th.ng h.c an ninh m.ng.UC_REG" data-source-line="23" id="ent0009"><ellipse cx="551.8325" cy="976.1671" fill="#F1F1F1" rx="38.8325" ry="16.1671" style="stroke:#181818;stroke-width:0.5;"/><text fill="#000000" font-family="'Segoe UI'" font-size="14" lengthAdjust="spacing" textLength="50.6748" x="526.4951" y="981.9776">&#272;&#259;ng k&#253;</text></g><!--entity UC_LOGIN--><g class="entity" data-qualified-name="ILS . H. th.ng h.c an ninh m.ng.UC_LOGIN" data-source-line="24" id="ent0010"><ellipse cx="808.5348" cy="553.2233" fill="#F1F1F1" rx="60.0348" ry="28.2233" style="stroke:#181818;stroke-width:0.5;"/><text fill="#000000" font-family="'Segoe UI'" font-size="14" lengthAdjust="spacing" textLength="68.1406" x="774.4645" y="548.116">&#272;&#259;ng nh&#7853;p</text><text fill="#000000" font-family="'Segoe UI'" font-size="14" lengthAdjust="spacing" textLength="84.2119" x="766.4289" y="566.7371">(native / SSO)</text></g><!--entity UC_PROFILE--><g class="entity" data-qualified-name="ILS . H. th.ng h.c an ninh m.ng.UC_PROFILE" data-source-line="26" id="ent0011"><ellipse cx="551.8304" cy="552.844" fill="#F1F1F1" rx="72.3304" ry="26.844" style="stroke:#181818;stroke-width:0.5;"/><text fill="#000000" font-family="'Segoe UI'" font-size="14" lengthAdjust="spacing" textLength="108.2881" x="497.6864" y="553.0725">Qu&#7843;n l&#253; th&#244;ng tin</text><text fill="#000000" font-family="'Segoe UI'" font-size="14" lengthAdjust="spacing" textLength="48.3164" x="527.6722" y="571.6936">c&#225; nh&#226;n</text></g><!--entity UC_LEARN--><g class="entity" data-qualified-name="ILS . H. th.ng h.c an ninh m.ng.UC_LEARN" data-source-line="27" id="ent0012"><ellipse cx="552.0604" cy="631.9121" fill="#F1F1F1" rx="72.5604" ry="16.9121" style="stroke:#181818;stroke-width:0.5;"/><text fill="#000000" font-family="'Segoe UI'" font-size="14" lengthAdjust="spacing" textLength="103.373" x="500.3739" y="637.7226">H&#7885;c v&#224; luy&#7879;n t&#7853;p</text></g><!--entity UC_CHAL--><g class="entity" data-qualified-name="ILS . H. th.ng h.c an ninh m.ng.UC_CHAL" data-source-line="28" id="ent0013"><ellipse cx="552.0921" cy="700.1671" fill="#F1F1F1" rx="65.5921" ry="16.1671" style="stroke:#181818;stroke-width:0.5;"/><text fill="#000000" font-family="'Segoe UI'" font-size="14" lengthAdjust="spacing" textLength="88.5186" x="507.8328" y="705.9776">L&#224;m th&#7917; th&#225;ch</text></g><!--entity UC_QUIZ--><g class="entity" data-qualified-name="ILS . H. th.ng h.c an ninh m.ng.UC_QUIZ" data-source-line="29" id="ent0014"><ellipse cx="551.9053" cy="767.1671" fill="#F1F1F1" rx="68.4053" ry="16.1671" style="stroke:#181818;stroke-width:0.5;"/><text fill="#000000" font-family="'Segoe UI'" font-size="14" lengthAdjust="spacing" textLength="92.4971" x="505.6568" y="772.9776">Luy&#7879;n t&#7853;p Quiz</text></g><!--entity UC_RANK--><g class="entity" data-qualified-name="ILS . H. th.ng h.c an ninh m.ng.UC_RANK" data-source-line="30" id="ent0015"><ellipse cx="551.9731" cy="836.9946" fill="#F1F1F1" rx="80.4731" ry="18.4946" style="stroke:#181818;stroke-width:0.5;"/><text fill="#000000" font-family="'Segoe UI'" font-size="14" lengthAdjust="spacing" textLength="123.8535" x="490.0463" y="842.8052">Xem b&#7843;ng x&#7871;p h&#7841;ng</text></g><!--entity UC_NOTIF--><g class="entity" data-qualified-name="ILS . H. th.ng h.c an ninh m.ng.UC_NOTIF" data-source-line="31" id="ent0016"><ellipse cx="551.943" cy="907.7886" fill="#F1F1F1" rx="71.943" ry="16.7886" style="stroke:#181818;stroke-width:0.5;"/><text fill="#000000" font-family="'Segoe UI'" font-size="14" lengthAdjust="spacing" textLength="101.7051" x="501.0905" y="913.5991">Nh&#7853;n th&#244;ng b&#225;o</text></g><!--entity UC_MLEARN--><g class="entity" data-qualified-name="ILS . H. th.ng h.c an ninh m.ng.UC_MLEARN" data-source-line="33" id="ent0017"><ellipse cx="552.2483" cy="325.914" fill="#F1F1F1" rx="66.2483" ry="26.914" style="stroke:#181818;stroke-width:0.5;"/><text fill="#000000" font-family="'Segoe UI'" font-size="14" lengthAdjust="spacing" textLength="98.499" x="502.9988" y="326.0306">Qu&#7843;n l&#253; module</text><text fill="#000000" font-family="'Segoe UI'" font-size="14" lengthAdjust="spacing" textLength="46.5254" x="528.9856" y="344.6517">h&#7885;c t&#7853;p</text></g><!--entity UC_MCHAL--><g class="entity" data-qualified-name="ILS . H. th.ng h.c an ninh m.ng.UC_MCHAL" data-source-line="34" id="ent0018"><ellipse cx="552.1599" cy="405.932" fill="#F1F1F1" rx="75.1599" ry="17.432" style="stroke:#181818;stroke-width:0.5;"/><text fill="#000000" font-family="'Segoe UI'" font-size="14" lengthAdjust="spacing" textLength="110.2705" x="497.0247" y="411.7425">Qu&#7843;n l&#253; th&#7917; th&#225;ch</text></g><!--entity UC_MQUIZ--><g class="entity" data-qualified-name="ILS . H. th.ng h.c an ninh m.ng.UC_MQUIZ" data-source-line="35" id="ent0019"><ellipse cx="552.1212" cy="475.1671" fill="#F1F1F1" rx="57.6212" ry="16.1671" style="stroke:#181818;stroke-width:0.5;"/><text fill="#000000" font-family="'Segoe UI'" font-size="14" lengthAdjust="spacing" textLength="77.2461" x="513.4982" y="480.9776">Qu&#7843;n l&#253; quiz</text></g><!--entity UC_USERS--><g class="entity" data-qualified-name="ILS . H. th.ng h.c an ninh m.ng.UC_USERS" data-source-line="37" id="ent0020"><ellipse cx="551.9021" cy="62.9804" fill="#F1F1F1" rx="80.4021" ry="18.4804" style="stroke:#181818;stroke-width:0.5;"/><text fill="#000000" font-family="'Segoe UI'" font-size="14" lengthAdjust="spacing" textLength="123.6758" x="490.0642" y="68.791">Qu&#7843;n l&#253; ng&#432;&#7901;i d&#249;ng</text></g><!--entity UC_RBAC--><g class="entity" data-qualified-name="ILS . H. th.ng h.c an ninh m.ng.UC_RBAC" data-source-line="38" id="ent0021"><ellipse cx="551.9572" cy="146.1925" fill="#F1F1F1" rx="66.4572" ry="29.1925" style="stroke:#181818;stroke-width:0.5;"/><text fill="#000000" font-family="'Segoe UI'" font-size="14" lengthAdjust="spacing" textLength="90.2275" x="506.8434" y="142.8934">Qu&#7843;n l&#253; vai tr&#242;</text><text fill="#000000" font-family="'Segoe UI'" font-size="14" lengthAdjust="spacing" textLength="88.2588" x="507.8278" y="161.5145">&amp; ph&#226;n quy&#7873;n</text></g><!--entity UC_CONFIG--><g class="entity" data-qualified-name="ILS . H. th.ng h.c an ninh m.ng.UC_CONFIG" data-source-line="39" id="ent0022"><ellipse cx="552.1" cy="237.2307" fill="#F1F1F1" rx="77.6" ry="27.2307" style="stroke:#181818;stroke-width:0.5;"/><text fill="#000000" font-family="'Segoe UI'" font-size="14" lengthAdjust="spacing" textLength="114.6592" x="494.7704" y="236.8476">C&#7845;u h&#236;nh h&#7879; th&#7889;ng</text><text fill="#000000" font-family="'Segoe UI'" font-size="14" lengthAdjust="spacing" textLength="65.9121" x="519.1439" y="255.4687">&amp; t&#237;ch h&#7907;p</text></g><!--entity guest--><g class="entity" data-qualified-name="guest" data-source-line="13" id="ent0001"><ellipse cx="33" cy="955.5" fill="#F1F1F1" rx="16" ry="16" style="stroke:#181818;stroke-width:0.5;"/><path d="M33,975.5 C37,975.5 40,975.5 44,971.5 C52,971.5 60,979.5 60,987.5 L60,991.5 C60,995.5 56,999.5 52,999.5 L14,999.5 C10,999.5 6,995.5 6,991.5 L6,987.5 C6,979.5 14,971.5 22,971.5 C26,975.5 29,975.5 33,975.5" fill="#F1F1F1" style="stroke:#181818;stroke-width:0.5;"/><text fill="#000000" font-family="'Segoe UI'" font-size="14" lengthAdjust="spacing" textLength="35.5332" x="15.2334" y="1015.1074">Guest</text></g><!--entity member--><g class="entity" data-qualified-name="member" data-source-line="14" id="ent0002"><ellipse cx="149" cy="707.5" fill="#F1F1F1" rx="16" ry="16" style="stroke:#181818;stroke-width:0.5;"/><path d="M149,727.5 C153,727.5 156,727.5 160,723.5 C168,723.5 176,731.5 176,739.5 L176,743.5 C176,747.5 172,751.5 168,751.5 L130,751.5 C126,751.5 122,747.5 122,743.5 L122,739.5 C122,731.5 130,723.5 138,723.5 C142,727.5 145,727.5 149,727.5" fill="#F1F1F1" style="stroke:#181818;stroke-width:0.5;"/><text fill="#000000" font-family="'Segoe UI'" font-size="14" lengthAdjust="spacing" textLength="52.3701" x="122.8149" y="767.1074">Member</text></g><!--entity editor--><g class="entity" data-qualified-name="editor" data-source-line="15" id="ent0003"><ellipse cx="265" cy="380.5" fill="#F1F1F1" rx="16" ry="16" style="stroke:#181818;stroke-width:0.5;"/><path d="M265,400.5 C269,400.5 272,400.5 276,396.5 C284,396.5 292,404.5 292,412.5 L292,416.5 C292,420.5 288,424.5 284,424.5 L246,424.5 C242,424.5 238,420.5 238,416.5 L238,412.5 C238,404.5 246,396.5 254,396.5 C258,400.5 261,400.5 265,400.5" fill="#F1F1F1" style="stroke:#181818;stroke-width:0.5;"/><text fill="#000000" font-family="'Segoe UI'" font-size="14" lengthAdjust="spacing" textLength="36.5313" x="246.7344" y="440.1074">Editor</text></g><!--entity admin--><g class="entity" data-qualified-name="admin" data-source-line="16" id="ent0004"><ellipse cx="381" cy="168.5" fill="#F1F1F1" rx="16" ry="16" style="stroke:#181818;stroke-width:0.5;"/><path d="M381,188.5 C385,188.5 388,188.5 392,184.5 C400,184.5 408,192.5 408,200.5 L408,204.5 C408,208.5 404,212.5 400,212.5 L362,212.5 C358,212.5 354,208.5 354,204.5 L354,200.5 C354,192.5 362,184.5 370,184.5 C374,188.5 377,188.5 381,188.5" fill="#F1F1F1" style="stroke:#181818;stroke-width:0.5;"/><text fill="#000000" font-family="'Segoe UI'" font-size="14" lengthAdjust="spacing" textLength="40.6465" x="360.6768" y="228.1074">Admin</text></g><!--reverse link guest to member--><g class="link" data-entity-1="ent0001" data-entity-2="ent0002" data-link-type="extension" data-source-line="18" id="lnk5"><path d="M59.9588,922.5256 C81.1988,876.3256 108.36,817.24 129.58,771.06" fill="none" id="guest-backto-member" style="stroke:#181818;stroke-width:1;"/><polygon fill="none" points="52.44,938.88,65.4103,925.0318,54.5073,920.0193,52.44,938.88" style="stroke:#181818;stroke-width:1;stroke-linejoin:miter;stroke-miterlimit:10;"/></g><!--reverse link member to editor--><g class="link" data-entity-1="ent0002" data-entity-2="ent0003" data-link-type="extension" data-source-line="19" id="lnk6"><path d="M163.1454,673.3715 C172.9654,631.7715 185.94,582.68 206.5,527 C216.95,498.7 231.33,467.95 243.09,444.27" fill="none" id="member-backto-editor" style="stroke:#181818;stroke-width:1;"/><polygon fill="none" points="159.01,690.89,168.9849,674.7499,157.3059,671.993,159.01,690.89" style="stroke:#181818;stroke-width:1;stroke-linejoin:miter;stroke-miterlimit:10;"/></g><!--reverse link editor to admin--><g class="link" data-entity-1="ent0003" data-entity-2="ent0004" data-link-type="extension" data-source-line="20" id="lnk7"><path d="M296.2353,347.7769 C316.5253,310.0469 338.11,269.9 358.37,232.22" fill="none" id="editor-backto-admin" style="stroke:#181818;stroke-width:1;"/><polygon fill="none" points="287.71,363.63,301.5196,350.6187,290.9509,344.9352,287.71,363.63" style="stroke:#181818;stroke-width:1;stroke-linejoin:miter;stroke-miterlimit:10;"/></g><!--link guest to UC_REG--><g class="link" data-entity-1="ent0001" data-entity-2="ent0009" data-link-type="dependency" data-source-line="43" id="lnk23"><path d="M60.72,979 C83.82,979 118.11,979 148,979 C148,979 148,979 382,979 C427.04,979 473.8316,978.0455 508.0816,977.1855" fill="none" id="guest-to-UC_REG" style="stroke:#181818;stroke-width:1;"/><polygon fill="#181818" points="513.08,977.06,503.9824,973.2872,508.0816,977.1855,504.1832,981.2847,513.08,977.06" style="stroke:#181818;stroke-width:1;stroke-linejoin:miter;stroke-miterlimit:10;"/></g><!--link guest to UC_LOGIN--><g class="link" data-entity-1="ent0001" data-entity-2="ent0010" data-link-type="dependency" data-source-line="44" id="lnk24"><path d="M60.64,1007.47 C82.11,1027.22 114.19,1050 148,1050 C148,1050 148,1050 553,1050 C765.3,1050 800.346,691.2725 806.116,586.1325" fill="none" id="guest-to-UC_LOGIN" style="stroke:#181818;stroke-width:1;"/><polygon fill="#181818" points="806.39,581.14,801.9028,589.9073,806.116,586.1325,809.8908,590.3457,806.39,581.14" style="stroke:#181818;stroke-width:1;stroke-linejoin:miter;stroke-miterlimit:10;"/></g><!--link member to UC_PROFILE--><g class="link" data-entity-1="ent0002" data-entity-2="ent0011" data-link-type="dependency" data-source-line="47" id="lnk25"><path d="M176.57,701.88 C185.62,692.75 196.08,682.98 206.5,675 C219.15,665.31 222.97,663.54 237.5,657 C323.51,618.26 423.614,587.7138 487.624,569.8538" fill="none" id="member-to-UC_PROFILE" style="stroke:#181818;stroke-width:1;"/><polygon fill="#181818" points="492.44,568.51,482.6961,567.0759,487.624,569.8538,484.8461,574.7816,492.44,568.51" style="stroke:#181818;stroke-width:1;stroke-linejoin:miter;stroke-miterlimit:10;"/></g><!--link member to UC_LEARN--><g class="link" data-entity-1="ent0002" data-entity-2="ent0012" data-link-type="dependency" data-source-line="48" id="lnk26"><path d="M176.57,714.85 C185.79,709.81 196.35,704.62 206.5,701 C300.85,667.32 410.9921,649.0974 481.3721,639.9074" fill="none" id="member-to-UC_LEARN" style="stroke:#181818;stroke-width:1;"/><polygon fill="#181818" points="486.33,639.26,476.8878,636.459,481.3721,639.9074,477.9237,644.3916,486.33,639.26" style="stroke:#181818;stroke-width:1;stroke-linejoin:miter;stroke-miterlimit:10;"/></g><!--link member to UC_CHAL--><g class="link" data-entity-1="ent0002" data-entity-2="ent0013" data-link-type="dependency" data-source-line="49" id="lnk27"><path d="M176.62,728.94 C239.86,724.05 395.4449,712.0256 484.3849,705.1456" fill="none" id="member-to-UC_CHAL" style="stroke:#181818;stroke-width:1;"/><polygon fill="#181818" points="489.37,704.76,480.0883,701.466,484.3849,705.1456,480.7053,709.4422,489.37,704.76" style="stroke:#181818;stroke-width:1;stroke-linejoin:miter;stroke-miterlimit:10;"/></g><!--link member to UC_QUIZ--><g class="link" data-entity-1="ent0002" data-entity-2="ent0014" data-link-type="dependency" data-source-line="50" id="lnk28"><path d="M176.62,733.39 C239.51,739.04 393.68,752.8729 482.9,760.8829" fill="none" id="member-to-UC_QUIZ" style="stroke:#181818;stroke-width:1;"/><polygon fill="#181818" points="487.88,761.33,479.2737,756.5413,482.9,760.8829,478.5584,764.5092,487.88,761.33" style="stroke:#181818;stroke-width:1;stroke-linejoin:miter;stroke-miterlimit:10;"/></g><!--link member to UC_RANK--><g class="link" data-entity-1="ent0002" data-entity-2="ent0015" data-link-type="dependency" data-source-line="51" id="lnk29"><path d="M176.62,738.04 C242.04,755.33 406.8161,798.8818 493.4961,821.8018" fill="none" id="member-to-UC_RANK" style="stroke:#181818;stroke-width:1;"/><polygon fill="#181818" points="498.33,823.08,490.6516,816.9122,493.4961,821.8018,488.6065,824.6464,498.33,823.08" style="stroke:#181818;stroke-width:1;stroke-linejoin:miter;stroke-miterlimit:10;"/></g><!--link member to UC_NOTIF--><g class="link" data-entity-1="ent0002" data-entity-2="ent0016" data-link-type="dependency" data-source-line="52" id="lnk30"><path d="M176.61,745.48 C193.85,754.74 216.86,766.86 237.5,777 C329.62,822.23 352.1,835.18 447.5,873 C467.07,880.76 484.3785,886.8133 503.0885,892.9433" fill="none" id="member-to-UC_NOTIF" style="stroke:#181818;stroke-width:1;"/><polygon fill="#181818" points="507.84,894.5,500.5327,887.8967,503.0885,892.9433,498.0419,895.4991,507.84,894.5" style="stroke:#181818;stroke-width:1;stroke-linejoin:miter;stroke-miterlimit:10;"/></g><!--link editor to UC_MLEARN--><g class="link" data-entity-1="ent0003" data-entity-2="ent0017" data-link-type="dependency" data-source-line="55" id="lnk31"><path d="M292.61,390.99 C301.91,386.77 312.53,382.33 322.5,379 C378.51,360.3 439.4723,346.7365 486.0623,337.6565" fill="none" id="editor-to-UC_MLEARN" style="stroke:#181818;stroke-width:1;"/><polygon fill="#181818" points="490.97,336.7,481.371,334.4955,486.0623,337.6565,482.9014,342.3478,490.97,336.7" style="stroke:#181818;stroke-width:1;stroke-linejoin:miter;stroke-miterlimit:10;"/></g><!--link editor to UC_MCHAL--><g class="link" data-entity-1="ent0003" data-entity-2="ent0018" data-link-type="dependency" data-source-line="56" id="lnk32"><path d="M292.56,404.19 C334.22,404.48 411.4301,405.0253 471.9901,405.4453" fill="none" id="editor-to-UC_MCHAL" style="stroke:#181818;stroke-width:1;"/><polygon fill="#181818" points="476.99,405.48,468.018,401.4177,471.9901,405.4453,467.9625,409.4175,476.99,405.48" style="stroke:#181818;stroke-width:1;stroke-linejoin:miter;stroke-miterlimit:10;"/></g><!--link editor to UC_MQUIZ--><g class="link" data-entity-1="ent0003" data-entity-2="ent0019" data-link-type="dependency" data-source-line="57" id="lnk33"><path d="M292.56,410.62 C342.03,422.94 443.8181,448.3019 503.4981,463.1619" fill="none" id="editor-to-UC_MQUIZ" style="stroke:#181818;stroke-width:1;"/><polygon fill="#181818" points="508.35,464.37,500.5831,458.314,503.4981,463.1619,498.6502,466.0769,508.35,464.37" style="stroke:#181818;stroke-width:1;stroke-linejoin:miter;stroke-miterlimit:10;"/></g><!--link admin to UC_USERS--><g class="link" data-entity-1="ent0004" data-entity-2="ent0020" data-link-type="dependency" data-source-line="60" id="lnk34"><path d="M402.64,151.82 C413.78,133.53 429.05,112.91 447.5,99 C461.1,88.75 473.1019,82.8671 489.1219,77.4671" fill="none" id="admin-to-UC_USERS" style="stroke:#181818;stroke-width:1;"/><polygon fill="#181818" points="493.86,75.87,484.0538,74.9543,489.1219,77.4671,486.6092,82.5352,493.86,75.87" style="stroke:#181818;stroke-width:1;stroke-linejoin:miter;stroke-miterlimit:10;"/></g><!--link admin to UC_RBAC--><g class="link" data-entity-1="ent0004" data-entity-2="ent0021" data-link-type="dependency" data-source-line="61" id="lnk35"><path d="M408.78,184.71 C431.86,178.43 461.1256,170.4633 490.1456,162.5633" fill="none" id="admin-to-UC_RBAC" style="stroke:#181818;stroke-width:1;"/><polygon fill="#181818" points="494.97,161.25,485.2354,159.7545,490.1456,162.5633,487.3367,167.4736,494.97,161.25" style="stroke:#181818;stroke-width:1;stroke-linejoin:miter;stroke-miterlimit:10;"/></g><!--link admin to UC_CONFIG--><g class="link" data-entity-1="ent0004" data-entity-2="ent0022" data-link-type="dependency" data-source-line="62" id="lnk36"><path d="M408.78,199.13 C430.56,204.93 457.3083,212.0536 485.1783,219.4736" fill="none" id="admin-to-UC_CONFIG" style="stroke:#181818;stroke-width:1;"/><polygon fill="#181818" points="490.01,220.76,482.3421,214.5792,485.1783,219.4736,480.2839,222.3099,490.01,220.76" style="stroke:#181818;stroke-width:1;stroke-linejoin:miter;stroke-miterlimit:10;"/></g><!--link UC_PROFILE to UC_LOGIN--><g class="link" data-entity-1="ent0011" data-entity-2="ent0010" data-link-type="dependency" data-source-line="65" id="lnk37"><path d="M624.57,553 C663.68,553 706.52,553 743.48,553" fill="none" id="UC_PROFILE-to-UC_LOGIN" style="stroke:#181818;stroke-width:1;stroke-dasharray:7,7;"/><polygon fill="#181818" points="748.48,553,739.48,549,743.48,553,739.48,557,748.48,553" style="stroke:#181818;stroke-width:1;stroke-linejoin:miter;stroke-miterlimit:10;"/><text fill="#000000" font-family="'Segoe UI'" font-size="13" lengthAdjust="spacing" textLength="54.6216" x="663.5" y="549.0283">&#171;include&#187;</text></g><!--link UC_LEARN to UC_LOGIN--><g class="link" data-entity-1="ent0012" data-entity-2="ent0010" data-link-type="dependency" data-source-line="66" id="lnk38"><path d="M596.46,618.51 C641.32,604.58 706.4246,584.3719 753.3446,569.8119" fill="none" id="UC_LEARN-to-UC_LOGIN" style="stroke:#181818;stroke-width:1;stroke-dasharray:7,7;"/><polygon fill="#181818" points="758.12,568.33,748.3389,567.1771,753.3446,569.8119,750.7098,574.8177,758.12,568.33" style="stroke:#181818;stroke-width:1;stroke-linejoin:miter;stroke-miterlimit:10;"/><text fill="#000000" font-family="'Segoe UI'" font-size="13" lengthAdjust="spacing" textLength="54.6216" x="663.5" y="577.0283">&#171;include&#187;</text></g><!--link UC_CHAL to UC_LOGIN--><g class="link" data-entity-1="ent0013" data-entity-2="ent0010" data-link-type="dependency" data-source-line="67" id="lnk39"><path d="M586.01,686.24 C600.35,680.17 617.32,672.86 632.5,666 C671.09,648.56 682.68,647.58 718.5,625 C740.52,611.11 759.5368,595.8707 776.5468,581.0807" fill="none" id="UC_CHAL-to-UC_LOGIN" style="stroke:#181818;stroke-width:1;stroke-dasharray:7,7;"/><polygon fill="#181818" points="780.32,577.8,770.9037,580.6868,776.5468,581.0807,776.1529,586.7238,780.32,577.8" style="stroke:#181818;stroke-width:1;stroke-linejoin:miter;stroke-miterlimit:10;"/><text fill="#000000" font-family="'Segoe UI'" font-size="13" lengthAdjust="spacing" textLength="54.6216" x="663.5" y="621.0283">&#171;include&#187;</text></g><!--link UC_QUIZ to UC_LOGIN--><g class="link" data-entity-1="ent0014" data-entity-2="ent0010" data-link-type="dependency" data-source-line="68" id="lnk40"><path d="M591.82,753.84 C627.92,740.09 681.54,715.67 718.5,681 C750.38,651.09 775.0057,612.3362 790.6457,584.5762" fill="none" id="UC_QUIZ-to-UC_LOGIN" style="stroke:#181818;stroke-width:1;stroke-dasharray:7,7;"/><polygon fill="#181818" points="793.1,580.22,785.1973,586.0977,790.6457,584.5762,792.1672,590.0246,793.1,580.22" style="stroke:#181818;stroke-width:1;stroke-linejoin:miter;stroke-miterlimit:10;"/><text fill="#000000" font-family="'Segoe UI'" font-size="13" lengthAdjust="spacing" textLength="54.6216" x="663.5" y="677.0283">&#171;include&#187;</text></g><!--link UC_RANK to UC_LOGIN--><g class="link" data-entity-1="ent0015" data-entity-2="ent0010" data-link-type="dependency" data-source-line="69" id="lnk41"><path d="M599.02,821.96 C635.78,807.83 686.32,783.38 718.5,747 C762.7,697.04 787.3666,626.2377 798.9366,585.7377" fill="none" id="UC_RANK-to-UC_LOGIN" style="stroke:#181818;stroke-width:1;stroke-dasharray:7,7;"/><polygon fill="#181818" points="800.31,580.93,793.9917,588.485,798.9366,585.7377,801.6839,590.6826,800.31,580.93" style="stroke:#181818;stroke-width:1;stroke-linejoin:miter;stroke-miterlimit:10;"/><text fill="#000000" font-family="'Segoe UI'" font-size="13" lengthAdjust="spacing" textLength="54.6216" x="663.5" y="743.0283">&#171;include&#187;</text></g><!--link UC_NOTIF to UC_LOGIN--><g class="link" data-entity-1="ent0016" data-entity-2="ent0010" data-link-type="dependency" data-source-line="70" id="lnk42"><path d="M598.32,894.91 C635.94,881.73 688.04,857.72 718.5,819 C776.15,745.7 796.6805,638.175 803.7105,586.145" fill="none" id="UC_NOTIF-to-UC_LOGIN" style="stroke:#181818;stroke-width:1;stroke-dasharray:7,7;"/><polygon fill="#181818" points="804.38,581.19,799.2109,589.5734,803.7105,586.145,807.1389,590.6445,804.38,581.19" style="stroke:#181818;stroke-width:1;stroke-linejoin:miter;stroke-miterlimit:10;"/><text fill="#000000" font-family="'Segoe UI'" font-size="13" lengthAdjust="spacing" textLength="54.6216" x="663.5" y="815.0283">&#171;include&#187;</text></g><!--link UC_MLEARN to UC_LOGIN--><g class="link" data-entity-1="ent0017" data-entity-2="ent0010" data-link-type="dependency" data-source-line="71" id="lnk43"><path d="M592.54,347.66 C605.4,354.89 619.66,363.12 632.5,371 C671.59,394.98 685.54,396.12 718.5,428 C749.14,457.63 773.6916,494.7541 789.7116,521.6541" fill="none" id="UC_MLEARN-to-UC_LOGIN" style="stroke:#181818;stroke-width:1;stroke-dasharray:7,7;"/><polygon fill="#181818" points="792.27,525.95,791.1016,516.1707,789.7116,521.6541,784.2282,520.2641,792.27,525.95" style="stroke:#181818;stroke-width:1;stroke-linejoin:miter;stroke-miterlimit:10;"/><text fill="#000000" font-family="'Segoe UI'" font-size="13" lengthAdjust="spacing" textLength="54.6216" x="663.5" y="385.0283">&#171;include&#187;</text></g><!--link UC_MCHAL to UC_LOGIN--><g class="link" data-entity-1="ent0018" data-entity-2="ent0010" data-link-type="dependency" data-source-line="72" id="lnk44"><path d="M588.75,421.38 C602.49,427.38 618.27,434.4 632.5,441 C671.08,458.91 682.47,460.39 718.5,483 C739.98,496.48 758.5765,510.94 775.5465,525.15" fill="none" id="UC_MCHAL-to-UC_LOGIN" style="stroke:#181818;stroke-width:1;stroke-dasharray:7,7;"/><polygon fill="#181818" points="779.38,528.36,775.0477,519.5152,775.5465,525.15,769.9117,525.6488,779.38,528.36" style="stroke:#181818;stroke-width:1;stroke-linejoin:miter;stroke-miterlimit:10;"/><text fill="#000000" font-family="'Segoe UI'" font-size="13" lengthAdjust="spacing" textLength="54.6216" x="663.5" y="451.0283">&#171;include&#187;</text></g><!--link UC_MQUIZ to UC_LOGIN--><g class="link" data-entity-1="ent0019" data-entity-2="ent0010" data-link-type="dependency" data-source-line="73" id="lnk45"><path d="M591.38,486.76 C635.81,500.38 704.3496,521.3844 753.0796,536.3244" fill="none" id="UC_MQUIZ-to-UC_LOGIN" style="stroke:#181818;stroke-width:1;stroke-dasharray:7,7;"/><polygon fill="#181818" points="757.86,537.79,750.4278,531.3276,753.0796,536.3244,748.0828,538.9762,757.86,537.79" style="stroke:#181818;stroke-width:1;stroke-linejoin:miter;stroke-miterlimit:10;"/><text fill="#000000" font-family="'Segoe UI'" font-size="13" lengthAdjust="spacing" textLength="54.6216" x="663.5" y="506.0283">&#171;include&#187;</text></g><!--link UC_USERS to UC_LOGIN--><g class="link" data-entity-1="ent0020" data-entity-2="ent0010" data-link-type="dependency" data-source-line="74" id="lnk46"><path d="M595.46,78.69 C607.93,84.21 621.23,91.06 632.5,99 C677.46,130.69 691.95,139.83 718.5,188 C781.47,302.25 799.9597,455.7769 805.2197,519.6569" fill="none" id="UC_USERS-to-UC_LOGIN" style="stroke:#181818;stroke-width:1;stroke-dasharray:7,7;"/><polygon fill="#181818" points="805.63,524.64,808.8779,515.3421,805.2197,519.6569,800.9049,515.9986,805.63,524.64" style="stroke:#181818;stroke-width:1;stroke-linejoin:miter;stroke-miterlimit:10;"/><text fill="#000000" font-family="'Segoe UI'" font-size="13" lengthAdjust="spacing" textLength="54.6216" x="663.5" y="118.0283">&#171;include&#187;</text></g><!--link UC_RBAC to UC_LOGIN--><g class="link" data-entity-1="ent0021" data-entity-2="ent0010" data-link-type="dependency" data-source-line="75" id="lnk47"><path d="M595.57,167.91 C607.91,174.98 621.12,183.26 632.5,192 C675.37,224.93 690.28,231.89 718.5,278 C768.66,359.97 792.6907,468.2697 802.0607,520.1097" fill="none" id="UC_RBAC-to-UC_LOGIN" style="stroke:#181818;stroke-width:1;stroke-dasharray:7,7;"/><polygon fill="#181818" points="802.95,525.03,805.2854,515.462,802.0607,520.1097,797.413,516.885,802.95,525.03" style="stroke:#181818;stroke-width:1;stroke-linejoin:miter;stroke-miterlimit:10;"/><text fill="#000000" font-family="'Segoe UI'" font-size="13" lengthAdjust="spacing" textLength="54.6216" x="663.5" y="211.0283">&#171;include&#187;</text></g><!--link UC_CONFIG to UC_LOGIN--><g class="link" data-entity-1="ent0022" data-entity-2="ent0010" data-link-type="dependency" data-source-line="76" id="lnk48"><path d="M597.53,259.09 C609.27,265.59 621.67,273.1 632.5,281 C674.91,311.95 687.75,319.44 718.5,362 C756.64,414.78 783.1165,481.7813 796.7165,520.5913" fill="none" id="UC_CONFIG-to-UC_LOGIN" style="stroke:#181818;stroke-width:1;stroke-dasharray:7,7;"/><polygon fill="#181818" points="798.37,525.31,799.1686,515.4936,796.7165,520.5913,791.6187,518.1392,798.37,525.31" style="stroke:#181818;stroke-width:1;stroke-linejoin:miter;stroke-miterlimit:10;"/><text fill="#000000" font-family="'Segoe UI'" font-size="13" lengthAdjust="spacing" textLength="54.6216" x="663.5" y="301.0283">&#171;include&#187;</text></g><?plantuml-src hLLDQzHG5DtdLrnceUrYAhWijH37wNHm9cDdEY1IaDVCQnAQl4mpILkhWkB2XHGik74Xj1PnOy6lZJE8YnJ_H_mbtlToKvFKJZVj8ZpEdFFkrtctr-7M5Vnfrm6QhHvituG_pzv0lrU7cewVEqszqTNRi9fCtXWDMEdhXgIknjyyS7z_JYR79fZnaGd2bb0quc0o-R7Z4s63cKm-CWZz-520dKnUGeZV0s7DoKjqC_I3UMX4V1J20hIvjyu3FDG73lw01ttWEG9cB2vum5ndZuMEBsQbzafATlb6YBb1u5Xs20CduAOCe8qs7J5a0VF0yuLlse7lSGY3YET-6TbiuEyume8DvexolmoPkSaitWiVkHpabKnORfumu1iiSiCbNuG6mvihFMxv7FhDIex4P6_IEzWE7s46cgOmQXSRWIKF15Bl4FNKYM3g9C9SdGXE-ueeamTDiz89FAbMCxb7iv0GIJbDHKAaEwiEAj8xqZZBkI7BYU-Rm0G81xtW9UCZOLNWiGRI9yec_Th3Rhq189EfdBu-VO6gpVXdfKXfTHfD8qyHTZ8-6Qw96O6MsEPm0tgzpcn5AyhkTJjBpLPT2LUYP7mim8r_OdRnTxmZTCIQGEjAvxuNvOXrlMjGMikgYktu4Dpe4POd89JHIuhQiju2KhJYGqyruKG6EpBj4dUbttnmnitV2IkHirSYTtNZRaQ-pprObuLOi9kCVmsnmwgdHONHMMqkaSAGdH9PpUlnaL_kKfjgBNN9ymUHozT4EiF_LTocai-rzyAwsrHuIR6bYYvISG5rU-Ufmf8xvvq3W_Z7kRgxj_KQdDTiCmTVR_nrJLo3ePmr1iIUFo_FlDOnbfgDL5vBnXyYiEDFwDlytf9tXF69gT1ZxCXJ3RTH5Pz4-YpnHA-fMbqaTnS1vULCHCzsfbWMd1x4n_Z9MNrMtKolacuYUvTGDSqI9WTLWkGaIf0qMWbIJigIfMKoivKRHp9vYqb7maeJf1r1wjHPPL0bKy9KDXI6bZv52ODaygemWZIIsa2PNfcb24al595ql5aKHvXkDE3pk9Kc-uwSAKvQg8wRoVYZW5tvJqs6_6BYAD0kKQQ1mX9IsUIMpTpSlp73F2mia6fnKSljbUciR9TCPsLRP3ehMn_JMTdAcCxALiKbB4h_4XQbFvsLhO5BQgI7VqbNwNrVpFeB?></g></svg>