<svg xmlns="http://www.w3.org/2000/svg" xmlns:xlink="http://www.w3.org/1999/xlink" contentStyleType="text/css" data-diagram-type="DESCRIPTION" height="991px" preserveAspectRatio="none" style="width:996px;height:991px;background:#FFFFFF;" version="1.1" viewBox="0 0 996 991" width="996px" zoomAndPan="magnify"><?plantuml 1.2026.6?><defs/><g><!--cluster X?c th?c & qu?n l? phi?n--><g class="cluster" data-qualified-name="X.c th.c . qu.n l. phi.n" data-source-line="15" id="ent0004"><rect fill="none" height="970" rx="2.5" ry="2.5" style="stroke:#181818;stroke-width:1;" width="759" x="223.5" y="7"/><text fill="#000000" font-family="'Segoe UI'" font-size="14" font-weight="700" lengthAdjust="spacing" textLength="166.3662" x="519.8169" y="24.1074">X&#225;c th&#7921;c &amp; qu&#7843;n l&#253; phi&#234;n</text></g><!--entity UC_REG--><g class="entity" data-qualified-name="X.c th.c . qu.n l. phi.n.UC_REG" data-source-line="17" id="ent0005"><ellipse cx="341.7203" cy="596.0441" fill="#F1F1F1" rx="75.7203" ry="17.5441" style="stroke:#181818;stroke-width:0.5;"/><text fill="#000000" font-family="'Segoe UI'" font-size="14" lengthAdjust="spacing" textLength="111.7334" x="285.8536" y="601.8546">&#272;&#259;ng k&#253; t&#224;i kho&#7843;n</text></g><!--entity UC_LOGIN--><g class="entity" data-qualified-name="X.c th.c . qu.n l. phi.n.UC_LOGIN" data-source-line="18" id="ent0006"><ellipse cx="341.5102" cy="667.002" fill="#F1F1F1" rx="78.0102" ry="18.002" style="stroke:#181818;stroke-width:0.5;"/><text fill="#000000" font-family="'Segoe UI'" font-size="14" lengthAdjust="spacing" textLength="117.6328" x="282.6938" y="672.8126">&#272;&#259;ng nh&#7853;p (native)</text></g><!--entity UC_FORGOT--><g class="entity" data-qualified-name="X.c th.c . qu.n l. phi.n.UC_FORGOT" data-source-line="19" id="ent0007"><ellipse cx="341.6049" cy="749.0624" fill="#F1F1F1" rx="72.6049" ry="29.0624" style="stroke:#181818;stroke-width:0.5;"/><text fill="#000000" font-family="'Segoe UI'" font-size="14" lengthAdjust="spacing" textLength="95.2451" x="293.9824" y="745.1759">Qu&#234;n m&#7853;t kh&#7849;u</text><text fill="#000000" font-family="'Segoe UI'" font-size="14" lengthAdjust="spacing" textLength="99.4629" x="291.8735" y="763.797">(g&#7917;i email reset)</text></g><!--entity UC_RESET--><g class="entity" data-qualified-name="X.c th.c . qu.n l. phi.n.UC_RESET" data-source-line="20" id="ent0008"><ellipse cx="341.7071" cy="841.0952" fill="#F1F1F1" rx="102.2071" ry="27.5952" style="stroke:#181818;stroke-width:0.5;"/><text fill="#000000" font-family="'Segoe UI'" font-size="14" lengthAdjust="spacing" textLength="100.9463" x="291.234" y="835.0422">&#272;&#7863;t l&#7841;i m&#7853;t kh&#7849;u</text><text fill="#000000" font-family="'Segoe UI'" font-size="14" lengthAdjust="spacing" textLength="150.2197" x="266.5973" y="853.6633">(token 1 l&#7847;n, h&#7871;t h&#7841;n 1h)</text></g><!--entity UC_SSO_R--><g class="entity" data-qualified-name="X.c th.c . qu.n l. phi.n.UC_SSO_R" data-source-line="21" id="ent0009"><ellipse cx="341.5122" cy="931.7549" fill="#F1F1F1" rx="84.0122" ry="28.2549" style="stroke:#181818;stroke-width:0.5;"/><text fill="#000000" font-family="'Segoe UI'" font-size="14" lengthAdjust="spacing" textLength="97.4053" x="292.8095" y="926.6944">&#272;&#259;ng nh&#7853;p SSO</text><text fill="#000000" font-family="'Segoe UI'" font-size="14" lengthAdjust="spacing" textLength="119.4648" x="281.7798" y="945.3155">(redirect Authentik)</text></g><!--entity UC_SSO_C--><g class="entity" data-qualified-name="X.c th.c . qu.n l. phi.n.UC_SSO_C" data-source-line="22" id="ent0010"><ellipse cx="639.715" cy="925.8413" fill="#F1F1F1" rx="74.715" ry="27.8413" style="stroke:#181818;stroke-width:0.5;"/><text fill="#000000" font-family="'Segoe UI'" font-size="14" lengthAdjust="spacing" textLength="78.415" x="600.5075" y="920.1623">SSO callback</text><text fill="#000000" font-family="'Segoe UI'" font-size="14" lengthAdjust="spacing" textLength="107.5156" x="585.9572" y="938.7834">(&#273;&#7893;i code &#8594; JWT)</text></g><!--entity UC_IDENT--><g class="entity" data-qualified-name="X.c th.c . qu.n l. phi.n.UC_IDENT" data-source-line="23" id="ent0011"><ellipse cx="901.1306" cy="925.9279" fill="#F1F1F1" rx="65.6306" ry="26.9279" style="stroke:#181818;stroke-width:0.5;"/><text fill="#000000" font-family="'Segoe UI'" font-size="14" lengthAdjust="spacing" textLength="97.4805" x="852.3904" y="926.0224">T&#7921; t&#7841;o / li&#234;n k&#7871;t</text><text fill="#000000" font-family="'Segoe UI'" font-size="14" lengthAdjust="spacing" textLength="46.5322" x="877.8645" y="944.6435">identity</text></g><!--entity UC_CHG--><g class="entity" data-qualified-name="X.c th.c . qu.n l. phi.n.UC_CHG" data-source-line="26" id="ent0012"><ellipse cx="341.6429" cy="60.1671" fill="#F1F1F1" rx="61.6429" ry="16.1671" style="stroke:#181818;stroke-width:0.5;"/><text fill="#000000" font-family="'Segoe UI'" font-size="14" lengthAdjust="spacing" textLength="82.9336" x="300.1761" y="65.9776">&#272;&#7893;i m&#7853;t kh&#7849;u</text></g><!--entity UC_LOGOUT--><g class="entity" data-qualified-name="X.c th.c . qu.n l. phi.n.UC_LOGOUT" data-source-line="27" id="ent0013"><ellipse cx="341.6589" cy="127.1671" fill="#F1F1F1" rx="47.6589" ry="16.1671" style="stroke:#181818;stroke-width:0.5;"/><text fill="#000000" font-family="'Segoe UI'" font-size="14" lengthAdjust="spacing" textLength="63.1572" x="310.0803" y="132.9776">&#272;&#259;ng xu&#7845;t</text></g><!--entity UC_LOGOUTA--><g class="entity" data-qualified-name="X.c th.c . qu.n l. phi.n.UC_LOGOUTA" data-source-line="28" id="ent0014"><ellipse cx="341.3326" cy="207.0422" fill="#F1F1F1" rx="52.8326" ry="28.5422" style="stroke:#181818;stroke-width:0.5;"/><text fill="#000000" font-family="'Segoe UI'" font-size="14" lengthAdjust="spacing" textLength="63.1572" x="309.754" y="202.4043">&#272;&#259;ng xu&#7845;t</text><text fill="#000000" font-family="'Segoe UI'" font-size="14" lengthAdjust="spacing" textLength="72.6592" x="305.0031" y="221.0253">t&#7845;t c&#7843; phi&#234;n</text></g><!--entity UC_SESS--><g class="entity" data-qualified-name="X.c th.c . qu.n l. phi.n.UC_SESS" data-source-line="29" id="ent0015"><ellipse cx="341.3284" cy="298.0622" fill="#F1F1F1" rx="68.8284" ry="27.5622" style="stroke:#181818;stroke-width:0.5;"/><text fill="#000000" font-family="'Segoe UI'" font-size="14" lengthAdjust="spacing" textLength="66.2607" x="308.198" y="291.9586">Xem phi&#234;n</text><text fill="#000000" font-family="'Segoe UI'" font-size="14" lengthAdjust="spacing" textLength="99.8115" x="291.4227" y="310.5797">&#273;ang ho&#7841;t &#273;&#7897;ng</text></g><!--entity UC_REVOKE--><g class="entity" data-qualified-name="X.c th.c . qu.n l. phi.n.UC_REVOKE" data-source-line="30" id="ent0016"><ellipse cx="341.593" cy="378.2186" fill="#F1F1F1" rx="76.593" ry="17.7186" style="stroke:#181818;stroke-width:0.5;"/><text fill="#000000" font-family="'Segoe UI'" font-size="14" lengthAdjust="spacing" textLength="113.9961" x="284.595" y="384.0292">Thu h&#7891;i m&#7897;t phi&#234;n</text></g><!--entity UC_REFRESH--><g class="entity" data-qualified-name="X.c th.c . qu.n l. phi.n.UC_REFRESH" data-source-line="31" id="ent0017"><ellipse cx="341.7003" cy="449.9401" fill="#F1F1F1" rx="85.2003" ry="19.4401" style="stroke:#181818;stroke-width:0.5;"/><text fill="#000000" font-family="'Segoe UI'" font-size="14" lengthAdjust="spacing" textLength="135.4951" x="273.9527" y="455.7506">L&#224;m m&#7899;i access token</text></g><!--entity UC_LINK--><g class="entity" data-qualified-name="X.c th.c . qu.n l. phi.n.UC_LINK" data-source-line="32" id="ent0018"><ellipse cx="341.4044" cy="524.1809" fill="#F1F1F1" rx="86.4044" ry="19.6809" style="stroke:#181818;stroke-width:0.5;"/><text fill="#000000" font-family="'Segoe UI'" font-size="14" lengthAdjust="spacing" textLength="138.4072" x="272.2008" y="529.9914">Li&#234;n k&#7871;t t&#224;i kho&#7843;n SSO</text></g><!--entity UC_REVOKEALL--><g class="entity" data-qualified-name="X.c th.c . qu.n l. phi.n.UC_REVOKEALL" data-source-line="34" id="ent0019"><ellipse cx="639.6429" cy="206.9286" fill="#F1F1F1" rx="80.1429" ry="18.4286" style="stroke:#181818;stroke-width:0.5;"/><text fill="#000000" font-family="'Segoe UI'" font-size="14" lengthAdjust="spacing" textLength="123.0264" x="578.1297" y="212.7391">Thu h&#7891;i t&#7845;t c&#7843; phi&#234;n</text></g><!--entity guest--><g class="entity" data-qualified-name="guest" data-source-line="11" id="ent0001"><ellipse cx="33" cy="689.5" fill="#F1F1F1" rx="16" ry="16" style="stroke:#181818;stroke-width:0.5;"/><path d="M33,709.5 C37,709.5 40,709.5 44,705.5 C52,705.5 60,713.5 60,721.5 L60,725.5 C60,729.5 56,733.5 52,733.5 L14,733.5 C10,733.5 6,729.5 6,725.5 L6,721.5 C6,713.5 14,705.5 22,705.5 C26,709.5 29,709.5 33,709.5" fill="#F1F1F1" style="stroke:#181818;stroke-width:0.5;"/><text fill="#000000" font-family="'Segoe UI'" font-size="14" lengthAdjust="spacing" textLength="35.5332" x="15.2334" y="749.1074">Guest</text></g><!--entity member--><g class="entity" data-qualified-name="member" data-source-line="12" id="ent0002"><ellipse cx="149" cy="314.5" fill="#F1F1F1" rx="16" ry="16" style="stroke:#181818;stroke-width:0.5;"/><path d="M149,334.5 C153,334.5 156,334.5 160,330.5 C168,330.5 176,338.5 176,346.5 L176,350.5 C176,354.5 172,358.5 168,358.5 L130,358.5 C126,358.5 122,354.5 122,350.5 L122,346.5 C122,338.5 130,330.5 138,330.5 C142,334.5 145,334.5 149,334.5" fill="#F1F1F1" style="stroke:#181818;stroke-width:0.5;"/><text fill="#000000" font-family="'Segoe UI'" font-size="14" lengthAdjust="spacing" textLength="52.3701" x="122.8149" y="374.1074">Member</text></g><!--reverse link guest to member--><g class="link" data-entity-1="ent0001" data-entity-2="ent0002" data-link-type="extension" data-source-line="13" id="lnk3"><path d="M51.4349,655.648 C73.3449,583.568 113.89,450.2 135.8,378.13" fill="none" id="guest-backto-member" style="stroke:#181818;stroke-width:1;"/><polygon fill="none" points="46.2,672.87,57.1756,657.393,45.6943,653.9031,46.2,672.87" style="stroke:#181818;stroke-width:1;stroke-linejoin:miter;stroke-miterlimit:10;"/></g><!--link guest to UC_REG--><g class="link" data-entity-1="ent0001" data-entity-2="ent0005" data-link-type="dependency" data-source-line="37" id="lnk20"><path d="M60.76,688.44 C69.74,681.12 80.11,673.57 90.5,668 C150.7,635.71 222.125,617.41 274.515,607.05" fill="none" id="guest-to-UC_REG" style="stroke:#181818;stroke-width:1;"/><polygon fill="#181818" points="279.42,606.08,269.815,603.9019,274.515,607.05,271.3669,611.7499,279.42,606.08" style="stroke:#181818;stroke-width:1;stroke-linejoin:miter;stroke-miterlimit:10;"/></g><!--link guest to UC_LOGIN--><g class="link" data-entity-1="ent0001" data-entity-2="ent0006" data-link-type="dependency" data-source-line="38" id="lnk21"><path d="M60.68,702.71 C69.99,699.47 80.59,696.17 90.5,694 C148.38,681.3 210.193,674.8403 260.163,671.2303" fill="none" id="guest-to-UC_LOGIN" style="stroke:#181818;stroke-width:1;"/><polygon fill="#181818" points="265.15,670.87,255.8852,667.5289,260.163,671.2303,256.4616,675.5081,265.15,670.87" style="stroke:#181818;stroke-width:1;stroke-linejoin:miter;stroke-miterlimit:10;"/></g><!--link guest to UC_FORGOT--><g class="link" data-entity-1="ent0001" data-entity-2="ent0007" data-link-type="dependency" data-source-line="39" id="lnk22"><path d="M60.66,716.13 C107.27,721.61 199.9641,732.497 266.6541,740.327" fill="none" id="guest-to-UC_FORGOT" style="stroke:#181818;stroke-width:1;"/><polygon fill="#181818" points="271.62,740.91,263.1478,735.8878,266.6541,740.327,262.215,743.8332,271.62,740.91" style="stroke:#181818;stroke-width:1;stroke-linejoin:miter;stroke-miterlimit:10;"/></g><!--link guest to UC_RESET--><g class="link" data-entity-1="ent0001" data-entity-2="ent0008" data-link-type="dependency" data-source-line="40" id="lnk23"><path d="M60.75,726.08 C95.89,743.07 159.67,773.23 215.5,796 C235.47,804.14 252.8217,810.6573 272.7717,817.7873" fill="none" id="guest-to-UC_RESET" style="stroke:#181818;stroke-width:1;"/><polygon fill="#181818" points="277.48,819.47,270.3512,812.6744,272.7717,817.7873,267.6588,820.2078,277.48,819.47" style="stroke:#181818;stroke-width:1;stroke-linejoin:miter;stroke-miterlimit:10;"/></g><!--link guest to UC_SSO_R--><g class="link" data-entity-1="ent0001" data-entity-2="ent0009" data-link-type="dependency" data-source-line="41" id="lnk24"><path d="M60.71,745.55 C93.61,783.8 152.87,846.99 215.5,886 C234.05,897.55 251.2243,905.178 271.4543,912.308" fill="none" id="guest-to-UC_SSO_R" style="stroke:#181818;stroke-width:1;"/><polygon fill="#181818" points="276.17,913.97,269.0114,907.2058,271.4543,912.308,266.3521,914.7509,276.17,913.97" style="stroke:#181818;stroke-width:1;stroke-linejoin:miter;stroke-miterlimit:10;"/></g><!--link member to UC_CHG--><g class="link" data-entity-1="ent0002" data-entity-2="ent0012" data-link-type="dependency" data-source-line="43" id="lnk25"><path d="M149.1,297.67 C150.18,243.54 160.46,147.86 215.5,93 C232.75,75.81 252.908,68.1395 276.078,63.9995" fill="none" id="member-to-UC_CHG" style="stroke:#181818;stroke-width:1;"/><polygon fill="#181818" points="281,63.12,271.4367,60.7654,276.078,63.9995,272.8439,68.6407,281,63.12" style="stroke:#181818;stroke-width:1;stroke-linejoin:miter;stroke-miterlimit:10;"/></g><!--link member to UC_LOGOUT--><g class="link" data-entity-1="ent0002" data-entity-2="ent0013" data-link-type="dependency" data-source-line="44" id="lnk26"><path d="M154.29,297.68 C160.71,257.44 176.58,196.61 215.5,161 C236.82,141.49 263.2778,133.6895 289.2778,130.0695" fill="none" id="member-to-UC_LOGOUT" style="stroke:#181818;stroke-width:1;"/><polygon fill="#181818" points="294.23,129.38,284.7644,126.6593,289.2778,130.0695,285.8676,134.5829,294.23,129.38" style="stroke:#181818;stroke-width:1;stroke-linejoin:miter;stroke-miterlimit:10;"/></g><!--link member to UC_LOGOUTA--><g class="link" data-entity-1="ent0002" data-entity-2="ent0014" data-link-type="dependency" data-source-line="45" id="lnk27"><path d="M173.8,298 C184.83,282.21 199.13,265.02 215.5,253 C238.24,236.3 262.8901,226.4704 287.5001,219.2904" fill="none" id="member-to-UC_LOGOUTA" style="stroke:#181818;stroke-width:1;"/><polygon fill="#181818" points="292.3,217.89,282.5399,216.5708,287.5001,219.2904,284.7805,224.2506,292.3,217.89" style="stroke:#181818;stroke-width:1;stroke-linejoin:miter;stroke-miterlimit:10;"/></g><!--link member to UC_SESS--><g class="link" data-entity-1="ent0002" data-entity-2="ent0015" data-link-type="dependency" data-source-line="46" id="lnk28"><path d="M176.89,332.35 C203.56,326.75 240.4365,319.0064 275.0965,311.7364" fill="none" id="member-to-UC_SESS" style="stroke:#181818;stroke-width:1;"/><polygon fill="#181818" points="279.99,310.71,270.3605,308.6428,275.0965,311.7364,272.0028,316.4724,279.99,310.71" style="stroke:#181818;stroke-width:1;stroke-linejoin:miter;stroke-miterlimit:10;"/></g><!--link member to UC_REVOKE--><g class="link" data-entity-1="ent0002" data-entity-2="ent0016" data-link-type="dependency" data-source-line="47" id="lnk29"><path d="M176.89,343.65 C204.68,349.48 243.9968,357.732 279.4568,365.182" fill="none" id="member-to-UC_REVOKE" style="stroke:#181818;stroke-width:1;"/><polygon fill="#181818" points="284.35,366.21,276.3647,360.445,279.4568,365.182,274.7199,368.2741,284.35,366.21" style="stroke:#181818;stroke-width:1;stroke-linejoin:miter;stroke-miterlimit:10;"/></g><!--link member to UC_REFRESH--><g class="link" data-entity-1="ent0002" data-entity-2="ent0017" data-link-type="dependency" data-source-line="48" id="lnk30"><path d="M176.8,376.82 C187.51,389.91 200.8,403.57 215.5,413 C233.22,424.36 249.7435,431.0079 269.7335,436.5779" fill="none" id="member-to-UC_REFRESH" style="stroke:#181818;stroke-width:1;"/><polygon fill="#181818" points="274.55,437.92,266.9539,431.6511,269.7335,436.5779,264.8066,439.3575,274.55,437.92" style="stroke:#181818;stroke-width:1;stroke-linejoin:miter;stroke-miterlimit:10;"/></g><!--link member to UC_LINK--><g class="link" data-entity-1="ent0002" data-entity-2="ent0018" data-link-type="dependency" data-source-line="49" id="lnk31"><path d="M157.77,378.07 C166.34,411.71 183.38,458.7 215.5,487 C230.1,499.87 244.2026,506.8511 262.8626,512.3311" fill="none" id="member-to-UC_LINK" style="stroke:#181818;stroke-width:1;"/><polygon fill="#181818" points="267.66,513.74,260.1518,507.3661,262.8626,512.3311,257.8976,515.0419,267.66,513.74" style="stroke:#181818;stroke-width:1;stroke-linejoin:miter;stroke-miterlimit:10;"/></g><!--link UC_SSO_R to UC_SSO_C--><g class="link" data-entity-1="ent0009" data-entity-2="ent0010" data-link-type="dependency" data-source-line="51" id="lnk32"><path d="M425.74,930.31 C469.51,929.43 517.701,928.4518 559.951,927.5918" fill="none" id="UC_SSO_R-to-UC_SSO_C" style="stroke:#181818;stroke-width:1;stroke-dasharray:7,7;"/><polygon fill="#181818" points="564.95,927.49,555.8705,923.674,559.951,927.5918,556.0333,931.6723,564.95,927.49" style="stroke:#181818;stroke-width:1;stroke-linejoin:miter;stroke-miterlimit:10;"/><text fill="#000000" font-family="'Segoe UI'" font-size="13" lengthAdjust="spacing" textLength="54.6216" x="474.5" y="924.0283">&#171;include&#187;</text></g><!--link UC_SSO_C to UC_IDENT--><g class="link" data-entity-1="ent0010" data-entity-2="ent0011" data-link-type="dependency" data-source-line="52" id="lnk33"><path d="M714.17,926 C752.38,926 793.62,926 830.42,926" fill="none" id="UC_SSO_C-to-UC_IDENT" style="stroke:#181818;stroke-width:1;stroke-dasharray:7,7;"/><polygon fill="#181818" points="835.42,926,826.42,922,830.42,926,826.42,930,835.42,926" style="stroke:#181818;stroke-width:1;stroke-linejoin:miter;stroke-miterlimit:10;"/><text fill="#000000" font-family="'Segoe UI'" font-size="13" lengthAdjust="spacing" textLength="54.6216" x="750.5" y="922.0283">&#171;include&#187;</text></g><!--link UC_CHG to UC_REVOKEALL--><g class="link" data-entity-1="ent0012" data-entity-2="ent0019" data-link-type="dependency" data-source-line="53" id="lnk34"><path d="M384.53,71.54 C402.97,77.15 424.66,84.53 443.5,93 C506.99,121.54 572.0117,162.5486 608.4817,186.7086" fill="none" id="UC_CHG-to-UC_REVOKEALL" style="stroke:#181818;stroke-width:1;stroke-dasharray:7,7;"/><polygon fill="#181818" points="612.65,189.47,607.3561,181.1649,608.4817,186.7086,602.9379,187.8342,612.65,189.47" style="stroke:#181818;stroke-width:1;stroke-linejoin:miter;stroke-miterlimit:10;"/><text fill="#000000" font-family="'Segoe UI'" font-size="13" lengthAdjust="spacing" textLength="54.6216" x="474.5" y="106.0283">&#171;include&#187;</text></g><!--link UC_RESET to UC_REVOKEALL--><g class="link" data-entity-1="ent0008" data-entity-2="ent0019" data-link-type="dependency" data-source-line="54" id="lnk35"><path d="M409.91,820.43 C422.34,814.18 434.29,806.18 443.5,796 C604.16,618.52 632.5306,310.261 637.3006,230.751" fill="none" id="UC_RESET-to-UC_REVOKEALL" style="stroke:#181818;stroke-width:1;stroke-dasharray:7,7;"/><polygon fill="#181818" points="637.6,225.76,633.0682,234.5043,637.3006,230.751,641.0539,234.9834,637.6,225.76" style="stroke:#181818;stroke-width:1;stroke-linejoin:miter;stroke-miterlimit:10;"/><text fill="#000000" font-family="'Segoe UI'" font-size="13" lengthAdjust="spacing" textLength="54.6216" x="474.5" y="668.0283">&#171;include&#187;</text></g><!--link UC_LOGOUTA to UC_REVOKEALL--><g class="link" data-entity-1="ent0014" data-entity-2="ent0019" data-link-type="dependency" data-source-line="55" id="lnk36"><path d="M394.74,207 C440.3,207 502.07,207 554.22,207" fill="none" id="UC_LOGOUTA-to-UC_REVOKEALL" style="stroke:#181818;stroke-width:1;stroke-dasharray:7,7;"/><polygon fill="#181818" points="559.22,207,550.22,203,554.22,207,550.22,211,559.22,207" style="stroke:#181818;stroke-width:1;stroke-linejoin:miter;stroke-miterlimit:10;"/><text fill="#000000" font-family="'Segoe UI'" font-size="13" lengthAdjust="spacing" textLength="54.6216" x="474.5" y="203.0283">&#171;include&#187;</text></g><?plantuml-src hLHDRzD04BtxLunoe4KYHLoh4YaARX8QaZPEeOT8rTRPsYlRws2lAHLmG4WSE54GXmeXDQqG0gaId90I8GxE7p6_X5dRIHqxWajpI5PlttpicpTPWRlNy55M0BRDy9o35rwimrxuiWQzHZJvNeCRiBCRZS_Rq0e_mNQZ6Rvf8_jQYjhqK81mmME6AM30FAeBvdB5jnWV4eyuuBZSrKtFTIW8Bw2P6zya0_U8SGCEYUrdRuP4juX1DN5iKv0f2JViB6503qbWYqsNYpR1p2MD6Yw5tMOfGoAwSBqa1pcYFdQWA346zO3w0eWFXZoau0Fg751FeavyKk9Bs7XUBiyGPTuBbFR2aGx2Z2O_T1JuSH2DBpZOuIyOcYpynalmJ05OWJ969-NmX4ZWKvtus6fjlwlM0JzOi3HzEts5EbWOBi8p1fRfodobnO1MfzviBmHmCnfV3c6L4y6Uq9iv_cQdM-_qOlvEW3s1Wso1oQFnrw3FLureSic0EeJPgB9FHJv1LzNKtgnWDFufm8x68vRF8roBShWZBx_mMu3mRo6_HmYQ-PoQrjdlBdi4Nc0kZoOcWceWJCe5ivObg2K9y0WwiUq3z0l6Ja-YoGS6kZkWyEVrExZ_g9SFRjvJs-cBUZWw4DYb2xV1bZC3ItRUvsmW2ulZaZ8VOMgEmWnhZSmCu-fPROhpw-psiaz_YhRvB9RIgaLUdmlv0pfwOsQpd3QgfgNjx54dvVJvz0HD2z9J8m5IfLDk54RziBEb9iAO0Kvlybw-PN8gbbVggfleZaOSq0hF7Cdzo73dTEhx43iY_wncUoljhNMbzeBVfGTYqGkDLLkjN6zBf7YXf3jRBbVI1Li4uWLQX98ToSUXxHUXsBMAuiniK4c7dqEIqIq5gpbKZYe79KyjWB7G-PmefgBCrsbjhNAr6kkmiS6uRWS3MgaeSpZb91jGu2H6JZbNcXTuoL_2_tap4_-R-HS0?></g></svg>