<svg xmlns="http://www.w3.org/2000/svg" xmlns:xlink="http://www.w3.org/1999/xlink" contentStyleType="text/css" data-diagram-type="DESCRIPTION" height="798px" preserveAspectRatio="none" style="width:705px;height:798px;background:#FFFFFF;" version="1.1" viewBox="0 0 705 798" width="705px" zoomAndPan="magnify"><?plantuml 1.2026.6?><defs/><g><!--cluster Qu?n l? quiz--><g class="cluster" data-qualified-name="Qu.n l. quiz" data-source-line="15" id="ent0004"><rect fill="none" height="435" rx="2.5" ry="2.5" style="stroke:#181818;stroke-width:1;" width="584" x="107.5" y="198.5"/><text fill="#000000" font-family="'Segoe UI'" font-size="14" font-weight="700" lengthAdjust="spacing" textLength="82.1475" x="358.4263" y="215.6074">Qu&#7843;n l&#253; quiz</text></g><!--entity UC_QUIZ--><g class="entity" data-qualified-name="Qu.n l. quiz.UC_QUIZ" data-source-line="16" id="ent0005"><ellipse cx="234.6071" cy="254.3214" fill="#F1F1F1" rx="79.6071" ry="18.3214" style="stroke:#181818;stroke-width:0.5;"/><text fill="#000000" font-family="'Segoe UI'" font-size="14" lengthAdjust="spacing" textLength="121.6797" x="173.7672" y="260.132">T&#7841;o / s&#7917;a / x&#243;a quiz</text></g><!--entity UC_NODE--><g class="entity" data-qualified-name="Qu.n l. quiz.UC_NODE" data-source-line="17" id="ent0006"><ellipse cx="234.6731" cy="335.5898" fill="#F1F1F1" rx="87.1731" ry="27.5898" style="stroke:#181818;stroke-width:0.5;"/><text fill="#000000" font-family="'Segoe UI'" font-size="14" lengthAdjust="spacing" textLength="127.4834" x="170.9314" y="334.6512">T&#7841;o / s&#7917;a / x&#243;a node</text><text fill="#000000" font-family="'Segoe UI'" font-size="14" lengthAdjust="spacing" textLength="85.4971" x="191.9245" y="353.2723">(folder / item)</text></g><!--entity UC_MOVE--><g class="entity" data-qualified-name="Qu.n l. quiz.UC_MOVE" data-source-line="18" id="ent0007"><ellipse cx="234.6903" cy="414.4381" fill="#F1F1F1" rx="70.1903" ry="16.4381" style="stroke:#181818;stroke-width:0.5;"/><text fill="#000000" font-family="'Segoe UI'" font-size="14" lengthAdjust="spacing" textLength="96.8994" x="186.2406" y="420.2486">Di chuy&#7875;n node</text></g><!--entity UC_Q--><g class="entity" data-qualified-name="Qu.n l. quiz.UC_Q" data-source-line="19" id="ent0008"><ellipse cx="234.3675" cy="494.7194" fill="#F1F1F1" rx="110.8675" ry="28.7194" style="stroke:#181818;stroke-width:0.5;"/><text fill="#000000" font-family="'Segoe UI'" font-size="14" lengthAdjust="spacing" textLength="140.6563" x="164.0394" y="490.3392">T&#7841;o / s&#7917;a / x&#243;a c&#226;u h&#7887;i</text><text fill="#000000" font-family="'Segoe UI'" font-size="14" lengthAdjust="spacing" textLength="156.1943" x="156.2703" y="508.9603">(single / multi / fill-blank)</text></g><!--entity UC_OPT--><g class="entity" data-qualified-name="Qu.n l. quiz.UC_OPT" data-source-line="20" id="ent0009"><ellipse cx="568.6264" cy="495.6826" fill="#F1F1F1" rx="107.1264" ry="27.6826" style="stroke:#181818;stroke-width:0.5;"/><text fill="#000000" font-family="'Segoe UI'" font-size="14" lengthAdjust="spacing" textLength="108.876" x="514.1884" y="489.763">Qu&#7843;n l&#253; &#273;&#225;p &#225;n &amp;</text><text fill="#000000" font-family="'Segoe UI'" font-size="14" lengthAdjust="spacing" textLength="157.1104" x="490.0713" y="508.3841">&#273;&#7897; ph&#226;n bi&#7879;t hoa-th&#432;&#7901;ng</text></g><!--entity UC_EXPL--><g class="entity" data-qualified-name="Qu.n l. quiz.UC_EXPL" data-source-line="21" id="ent0010"><ellipse cx="568.5572" cy="587.4413" fill="#F1F1F1" rx="66.5572" ry="27.9413" style="stroke:#181818;stroke-width:0.5;"/><text fill="#000000" font-family="'Segoe UI'" font-size="14" lengthAdjust="spacing" textLength="94.9033" x="521.1056" y="585.9695">Th&#234;m gi&#7843;i th&#237;ch</text><text fill="#000000" font-family="'Segoe UI'" font-size="14" lengthAdjust="spacing" textLength="71.292" x="532.9112" y="604.5906">cho c&#226;u h&#7887;i</text></g><!--entity UC_TAG--><g class="entity" data-qualified-name="Qu.n l. quiz.UC_TAG" data-source-line="22" id="ent0011"><ellipse cx="234.4338" cy="587.2796" fill="#F1F1F1" rx="68.4338" ry="29.2796" style="stroke:#181818;stroke-width:0.5;"/><text fill="#000000" font-family="'Segoe UI'" font-size="14" lengthAdjust="spacing" textLength="91.957" x="188.4553" y="583.7024">T&#7841;o / s&#7917;a / x&#243;a</text><text fill="#000000" font-family="'Segoe UI'" font-size="14" lengthAdjust="spacing" textLength="92.7295" x="188.0691" y="602.3235">category &amp; tag</text></g><!--entity editor--><g class="entity" data-qualified-name="editor" data-source-line="11" id="ent0001"><ellipse cx="33" cy="421" fill="#F1F1F1" rx="16" ry="16" style="stroke:#181818;stroke-width:0.5;"/><path d="M33,441 C37,441 40,441 44,437 C52,437 60,445 60,453 L60,457 C60,461 56,465 52,465 L14,465 C10,465 6,461 6,457 L6,453 C6,445 14,437 22,437 C26,441 29,441 33,441" fill="#F1F1F1" style="stroke:#181818;stroke-width:0.5;"/><text fill="#000000" font-family="'Segoe UI'" font-size="14" lengthAdjust="spacing" textLength="36.5313" x="14.7344" y="480.6074">Editor</text></g><!--entity admin--><g class="entity" data-qualified-name="admin" data-source-line="12" id="ent0002"><ellipse cx="234.5" cy="22" fill="#F1F1F1" rx="16" ry="16" style="stroke:#181818;stroke-width:0.5;"/><path d="M234.5,42 C238.5,42 241.5,42 245.5,38 C253.5,38 261.5,46 261.5,54 L261.5,58 C261.5,62 257.5,66 253.5,66 L215.5,66 C211.5,66 207.5,62 207.5,58 L207.5,54 C207.5,46 215.5,38 223.5,38 C227.5,42 230.5,42 234.5,42" fill="#F1F1F1" style="stroke:#181818;stroke-width:0.5;"/><text fill="#000000" font-family="'Segoe UI'" font-size="14" lengthAdjust="spacing" textLength="40.6465" x="214.1768" y="81.6074">Admin</text></g><g class="entity" data-qualified-name="GMN21" data-source-line="37" id="ent0022"><path d="M142,120.5 L142,182.373 A0,0 0 0 0 142,182.373 L230.5,182.373 L234.5,235.99 L238.5,182.373 L327.4614,182.373 A0,0 0 0 0 327.4614,182.373 L327.4614,130.5 L317.4614,120.5 L142,120.5 A0,0 0 0 0 142,120.5" fill="#FAFAFA" style="stroke:#181818;stroke-width:0.5;"/><path d="M317.4614,120.5 L317.4614,130.5 L327.4614,130.5 L317.4614,120.5" fill="#FAFAFA" style="stroke:#181818;stroke-width:0.5;"/><text fill="#000000" font-family="'Segoe UI'" font-size="13" lengthAdjust="spacing" textLength="144.1426" x="148" y="139.5283">quiz_point l&#224; read-only =</text><text fill="#000000" font-family="'Segoe UI'" font-size="13" lengthAdjust="spacing" textLength="126.8008" x="148" y="156.8193">t&#7893;ng &#273;i&#7875;m c&#225;c c&#226;u h&#7887;i</text><text fill="#000000" font-family="'Segoe UI'" font-size="13" lengthAdjust="spacing" textLength="164.4614" x="148" y="174.1104">(t&#7921; &#273;&#7891;ng b&#7897; khi s&#7917;a c&#226;u h&#7887;i).</text></g><!--reverse link editor to admin--><g class="link" data-entity-1="ent0001" data-entity-2="ent0002" data-link-type="extension" data-source-line="13" id="lnk3"><path d="M38.5026,386.3028 C45.2126,306.2028 62.34,148.55 99.5,102.5 C126.33,69.25 176.13,55.06 206.89,49.25" fill="none" id="editor-backto-admin" style="stroke:#181818;stroke-width:1;"/><polygon fill="none" points="37,404.24,44.4817,386.8037,32.5235,385.802,37,404.24" style="stroke:#181818;stroke-width:1;stroke-linejoin:miter;stroke-miterlimit:10;"/></g><!--link editor to UC_QUIZ--><g class="link" data-entity-1="ent0001" data-entity-2="ent0005" data-link-type="dependency" data-source-line="25" id="lnk12"><path d="M40.9,404.28 C49,369.3 65.84,319.76 99.5,290.5 C116.59,275.65 134.3364,268.01 156.0964,262.82" fill="none" id="editor-to-UC_QUIZ" style="stroke:#181818;stroke-width:1;"/><polygon fill="#181818" points="160.96,261.66,151.2776,259.8572,156.0964,262.82,153.1336,267.6389,160.96,261.66" style="stroke:#181818;stroke-width:1;stroke-linejoin:miter;stroke-miterlimit:10;"/></g><!--link editor to UC_NODE--><g class="link" data-entity-1="ent0001" data-entity-2="ent0006" data-link-type="dependency" data-source-line="26" id="lnk13"><path d="M60.62,413.06 C71.68,401.54 85.26,389.21 99.5,380.5 C119.39,368.34 138.2045,360.5134 159.9945,353.5934" fill="none" id="editor-to-UC_NODE" style="stroke:#181818;stroke-width:1;"/><polygon fill="#181818" points="164.76,352.08,154.9714,350.9918,159.9945,353.5934,157.3929,358.6165,164.76,352.08" style="stroke:#181818;stroke-width:1;stroke-linejoin:miter;stroke-miterlimit:10;"/></g><!--link editor to UC_MOVE--><g class="link" data-entity-1="ent0001" data-entity-2="ent0007" data-link-type="dependency" data-source-line="27" id="lnk14"><path d="M60.91,440.45 C90.05,436.07 132.4857,429.6939 170.2357,424.0139" fill="none" id="editor-to-UC_MOVE" style="stroke:#181818;stroke-width:1;"/><polygon fill="#181818" points="175.18,423.27,165.685,420.6536,170.2357,424.0139,166.8753,428.5646,175.18,423.27" style="stroke:#181818;stroke-width:1;stroke-linejoin:miter;stroke-miterlimit:10;"/></g><!--link editor to UC_Q--><g class="link" data-entity-1="ent0001" data-entity-2="ent0008" data-link-type="dependency" data-source-line="28" id="lnk15"><path d="M60.91,451.24 C84.84,457.24 116.2102,465.1039 149.3102,473.4039" fill="none" id="editor-to-UC_Q" style="stroke:#181818;stroke-width:1;"/><polygon fill="#181818" points="154.16,474.62,146.4032,468.5511,149.3102,473.4039,144.4574,476.3109,154.16,474.62" style="stroke:#181818;stroke-width:1;stroke-linejoin:miter;stroke-miterlimit:10;"/></g><!--link editor to UC_OPT--><g class="link" data-entity-1="ent0001" data-entity-2="ent0009" data-link-type="dependency" data-source-line="29" id="lnk16"><path d="M35.01,484.76 C38.56,529.7 51.91,600.57 99.5,634.5 C188.52,697.97 242.35,670.74 345.5,634.5 C407.84,612.59 404.91,575.62 461.5,541.5 C475.84,532.85 487.5273,526.9497 502.9273,520.2297" fill="none" id="editor-to-UC_OPT" style="stroke:#181818;stroke-width:1;"/><polygon fill="#181818" points="507.51,518.23,497.6614,518.1633,502.9273,520.2297,500.8609,525.4957,507.51,518.23" style="stroke:#181818;stroke-width:1;stroke-linejoin:miter;stroke-miterlimit:10;"/></g><!--link editor to UC_EXPL--><g class="link" data-entity-1="ent0001" data-entity-2="ent0010" data-link-type="dependency" data-source-line="30" id="lnk17"><path d="M39.21,484.55 C48.08,545.69 68.25,657.71 99.5,681.5 C233.2,783.26 444.4683,667.5648 528.3183,613.9148" fill="none" id="editor-to-UC_EXPL" style="stroke:#181818;stroke-width:1;"/><polygon fill="#181818" points="532.53,611.22,522.7932,612.7012,528.3183,613.9148,527.1048,619.4399,532.53,611.22" style="stroke:#181818;stroke-width:1;stroke-linejoin:miter;stroke-miterlimit:10;"/></g><!--link editor to UC_TAG--><g class="link" data-entity-1="ent0001" data-entity-2="ent0011" data-link-type="dependency" data-source-line="31" id="lnk18"><path d="M53.56,484.51 C64.7,503.74 80.29,525.76 99.5,540.5 C120.72,556.79 143.223,566.2996 167.643,573.4796" fill="none" id="editor-to-UC_TAG" style="stroke:#181818;stroke-width:1;"/><polygon fill="#181818" points="172.44,574.89,164.9338,568.5137,167.643,573.4796,162.6772,576.1888,172.44,574.89" style="stroke:#181818;stroke-width:1;stroke-linejoin:miter;stroke-miterlimit:10;"/></g><!--link UC_Q to UC_OPT--><g class="link" data-entity-1="ent0008" data-entity-2="ent0009" data-link-type="dependency" data-source-line="33" id="lnk19"><path d="M345.59,494.83 C382.87,494.94 419.41,495.0551 456.37,495.1651" fill="none" id="UC_Q-to-UC_OPT" style="stroke:#181818;stroke-width:1;stroke-dasharray:7,7;"/><polygon fill="#181818" points="461.37,495.18,452.3819,491.1532,456.37,495.1651,452.3581,499.1532,461.37,495.18" style="stroke:#181818;stroke-width:1;stroke-linejoin:miter;stroke-miterlimit:10;"/><text fill="#000000" font-family="'Segoe UI'" font-size="13" lengthAdjust="spacing" textLength="54.6216" x="376.5" y="491.5283">&#171;include&#187;</text></g><!--reverse link UC_Q to UC_EXPL--><g class="link" data-entity-1="ent0008" data-entity-2="ent0010" data-link-type="dependency" data-source-line="34" id="lnk20"><path d="M315.2348,516.8384 C376.7248,534.0584 457.54,556.7 512.75,572.16" fill="none" id="UC_Q-backto-UC_EXPL" style="stroke:#181818;stroke-width:1;stroke-dasharray:7,7;"/><polygon fill="#181818" points="310.42,515.49,318.0079,521.7688,315.2348,516.8384,320.1653,514.0652,310.42,515.49" style="stroke:#181818;stroke-width:1;stroke-linejoin:miter;stroke-miterlimit:10;"/><text fill="#000000" font-family="'Segoe UI'" font-size="13" lengthAdjust="spacing" textLength="52.1333" x="377.5" y="531.5283">&#171;extend&#187;</text></g><?plantuml-src hLDDQzj04BtlhnXyIEo3d7jm3A5nIo3r1t5AAOQmbbRQnQjTLrgHk1-d778iflJGGw1sReL0IsyMFSdqV-YVT2GvhYhmBRfeDVFcpSnxgtquUeA7x0FqUR9K42JtXp2uI5VBBfmbTtWyVGFrZYEC3k00ZXrVg0R2dwIhPAu1eo4G7ZVWY83PHcX5mebGKnfG7tojjCq3xJCmGSHAcP1JHry9vO5BPLZEJAazeHuxDpF98AEaofDbWCDS6adpN2lJfSXSEsUUPd1nMYk1g8qR5npqYeKu0I5v33PYq11OVjg4SscoACqEfCX1wuDbRI9aEmlK1b6wkbSWaz_mDXBlQl2U04GXisc8Wpoxp6L7hjemNIqq2X-cyGF5ztNoYnOb_nTqUoUTtGLAEsoawgwM3iji58RvZGh3ozwhWk54WCsZMHhVgBomWXi0FZixsSao0fx6dmJs2qM-xG7uABV0jokajCQIgacrUwy_B5XBogpdoM8AoKB1taYjvsdy5QRv9HsBDBurm3Mr3F_p8utlb5VXwxpkdnLJykIx3vv0LW669mys7ocRwzAabTBXyOlT2s8jDNXTWXdiWQ7OzYDvzDgose_ULKAPEvLG9dUriFADcbGYsLQL44vBI6vBizdUAda8hPPGjemSrcuNwLQpkHKcIxDhmvI3MQAqOJ3MncWVjBjT0V9xTZdLGXdqunl-IzInj98pECAaIUCl-FUjvsZ6ZOzoBkoIfWYe8-8dPBvzHjmuis_2nKRDVyX6a-0Sa0tn5m00?></g></svg>