<svg xmlns="http://www.w3.org/2000/svg" xmlns:xlink="http://www.w3.org/1999/xlink" contentStyleType="text/css" data-diagram-type="DESCRIPTION" height="673px" preserveAspectRatio="none" style="width:691px;height:673px;background:#FFFFFF;" version="1.1" viewBox="0 0 691 673" width="691px" zoomAndPan="magnify"><?plantuml 1.2026.6?><defs/><g><!--cluster Qu?n l? ng??i d?ng--><g class="cluster" data-qualified-name="Qu.n l. ng..i d.ng" data-source-line="13" id="ent0002"><rect fill="none" height="592" rx="2.5" ry="2.5" style="stroke:#181818;stroke-width:1;" width="512" x="165.5" y="67.5"/><text fill="#000000" font-family="'Segoe UI'" font-size="14" font-weight="700" lengthAdjust="spacing" textLength="131.749" x="355.6255" y="84.6074">Qu&#7843;n l&#253; ng&#432;&#7901;i d&#249;ng</text></g><!--entity UC_LIST--><g class="entity" data-qualified-name="Qu.n l. ng..i d.ng.UC_LIST" data-source-line="14" id="ent0003"><ellipse cx="259.5966" cy="200.545" fill="#F1F1F1" rx="78.0966" ry="27.045" style="stroke:#181818;stroke-width:0.5;"/><text fill="#000000" font-family="'Segoe UI'" font-size="14" lengthAdjust="spacing" textLength="116.3135" x="201.4399" y="200.4537">Li&#7879;t k&#234; ng&#432;&#7901;i d&#249;ng</text><text fill="#000000" font-family="'Segoe UI'" font-size="14" lengthAdjust="spacing" textLength="60.1904" x="229.5014" y="219.0748">(+ b&#7897; l&#7885;c)</text></g><!--entity UC_CREATE--><g class="entity" data-qualified-name="Qu.n l. ng..i d.ng.UC_CREATE" data-source-line="15" id="ent0004"><ellipse cx="259.3836" cy="121.5767" fill="#F1F1F1" rx="70.8836" ry="16.5767" style="stroke:#181818;stroke-width:0.5;"/><text fill="#000000" font-family="'Segoe UI'" font-size="14" lengthAdjust="spacing" textLength="98.8135" x="209.9769" y="127.3873">T&#7841;o ng&#432;&#7901;i d&#249;ng</text></g><!--entity UC_DETAIL--><g class="entity" data-qualified-name="Qu.n l. ng..i d.ng.UC_DETAIL" data-source-line="16" id="ent0005"><ellipse cx="259.6523" cy="291.7477" fill="#F1F1F1" rx="54.6523" ry="29.2477" style="stroke:#181818;stroke-width:0.5;"/><text fill="#000000" font-family="'Segoe UI'" font-size="14" lengthAdjust="spacing" textLength="73.2881" x="223.0083" y="288.3702">Xem chi ti&#7871;t</text><text fill="#000000" font-family="'Segoe UI'" font-size="14" lengthAdjust="spacing" textLength="72.3174" x="223.4936" y="306.9913">ng&#432;&#7901;i d&#249;ng</text></g><!--entity UC_EDIT--><g class="entity" data-qualified-name="Qu.n l. ng..i d.ng.UC_EDIT" data-source-line="17" id="ent0006"><ellipse cx="259.4309" cy="372.5862" fill="#F1F1F1" rx="70.9309" ry="16.5862" style="stroke:#181818;stroke-width:0.5;"/><text fill="#000000" font-family="'Segoe UI'" font-size="14" lengthAdjust="spacing" textLength="98.9434" x="209.9592" y="378.3967">S&#7917;a ng&#432;&#7901;i d&#249;ng</text></g><!--entity UC_DISABLE--><g class="entity" data-qualified-name="Qu.n l. ng..i d.ng.UC_DISABLE" data-source-line="18" id="ent0007"><ellipse cx="259.7336" cy="453.6552" fill="#F1F1F1" rx="55.2336" ry="29.1552" style="stroke:#181818;stroke-width:0.5;"/><text fill="#000000" font-family="'Segoe UI'" font-size="14" lengthAdjust="spacing" textLength="74.375" x="222.5461" y="450.4092">V&#244; hi&#7879;u h&#243;a</text><text fill="#000000" font-family="'Segoe UI'" font-size="14" lengthAdjust="spacing" textLength="72.3174" x="223.5749" y="469.0303">ng&#432;&#7901;i d&#249;ng</text></g><!--entity UC_DELETE--><g class="entity" data-qualified-name="Qu.n l. ng..i d.ng.UC_DELETE" data-source-line="19" id="ent0008"><ellipse cx="259.7202" cy="534.644" fill="#F1F1F1" rx="71.2202" ry="16.644" style="stroke:#181818;stroke-width:0.5;"/><text fill="#000000" font-family="'Segoe UI'" font-size="14" lengthAdjust="spacing" textLength="99.7363" x="209.852" y="540.4546">X&#243;a ng&#432;&#7901;i d&#249;ng</text></g><!--entity UC_STAT--><g class="entity" data-qualified-name="Qu.n l. ng..i d.ng.UC_STAT" data-source-line="20" id="ent0009"><ellipse cx="259.4784" cy="614.3562" fill="#F1F1F1" rx="61.9784" ry="28.3562" style="stroke:#181818;stroke-width:0.5;"/><text fill="#000000" font-family="'Segoe UI'" font-size="14" lengthAdjust="spacing" textLength="86.625" x="216.1659" y="612.267">Xem th&#7889;ng k&#234;</text><text fill="#000000" font-family="'Segoe UI'" font-size="14" lengthAdjust="spacing" textLength="72.3174" x="223.3197" y="630.8881">ng&#432;&#7901;i d&#249;ng</text></g><!--entity UC_REVOKE--><g class="entity" data-qualified-name="Qu.n l. ng..i d.ng.UC_REVOKE" data-source-line="22" id="ent0010"><ellipse cx="587.6469" cy="453.689" fill="#F1F1F1" rx="74.1469" ry="28.189" style="stroke:#181818;stroke-width:0.5;"/><text fill="#000000" font-family="'Segoe UI'" font-size="14" lengthAdjust="spacing" textLength="84.4033" x="545.4453" y="448.5309">Thu h&#7891;i t&#7845;t c&#7843;</text><text fill="#000000" font-family="'Segoe UI'" font-size="14" lengthAdjust="spacing" textLength="105.1914" x="535.0512" y="467.152">phi&#234;n &#273;&#259;ng nh&#7853;p</text></g><!--entity admin--><g class="entity" data-qualified-name="admin" data-source-line="11" id="ent0001"><ellipse cx="33" cy="349" fill="#F1F1F1" rx="16" ry="16" style="stroke:#181818;stroke-width:0.5;"/><path d="M33,369 C37,369 40,369 44,365 C52,365 60,373 60,381 L60,385 C60,389 56,393 52,393 L14,393 C10,393 6,389 6,385 L6,381 C6,373 14,365 22,365 C26,369 29,369 33,369" fill="#F1F1F1" style="stroke:#181818;stroke-width:0.5;"/><text fill="#000000" font-family="'Segoe UI'" font-size="14" lengthAdjust="spacing" textLength="40.6465" x="12.6768" y="408.6074">Admin</text></g><g class="entity" data-qualified-name="GMN19" data-source-line="36" id="ent0020"><path d="M121.5,6 L121.5,50.582 A0,0 0 0 0 121.5,50.582 L255.5,50.582 L259.5,104.79 L263.5,50.582 L397.3901,50.582 A0,0 0 0 0 397.3901,50.582 L397.3901,16 L387.3901,6 L121.5,6 A0,0 0 0 0 121.5,6" fill="#FAFAFA" style="stroke:#181818;stroke-width:0.5;"/><path d="M387.3901,6 L387.3901,16 L397.3901,16 L387.3901,6" fill="#FAFAFA" style="stroke:#181818;stroke-width:0.5;"/><text fill="#000000" font-family="'Segoe UI'" font-size="13" lengthAdjust="spacing" textLength="250.7578" x="127.5" y="25.0283">Kh&#244;ng truy&#7873;n m&#7853;t kh&#7849;u &#8594; h&#7879; th&#7889;ng t&#7921; sinh.</text><text fill="#000000" font-family="'Segoe UI'" font-size="13" lengthAdjust="spacing" textLength="254.8901" x="127.5" y="42.3193">Kh&#244;ng truy&#7873;n role &#8594; m&#7863;c &#273;&#7883;nh g&#225;n Member.</text></g><!--link admin to UC_LIST--><g class="link" data-entity-1="ent0001" data-entity-2="ent0003" data-link-type="dependency" data-source-line="25" id="lnk11"><path d="M52.53,332.26 C67.46,303.98 90.97,267.28 121.5,244.5 C141.52,229.56 161.9991,220.9422 185.3791,214.3222" fill="none" id="admin-to-UC_LIST" style="stroke:#181818;stroke-width:1;"/><polygon fill="#181818" points="190.19,212.96,180.4407,211.5632,185.3791,214.3222,182.6202,219.2606,190.19,212.96" style="stroke:#181818;stroke-width:1;stroke-linejoin:miter;stroke-miterlimit:10;"/></g><!--link admin to UC_CREATE--><g class="link" data-entity-1="ent0001" data-entity-2="ent0004" data-link-type="dependency" data-source-line="26" id="lnk12"><path d="M39.12,332.12 C47.52,283.05 68.91,201.19 121.5,155.5 C140.55,138.94 161.5357,131.1318 185.6857,126.6018" fill="none" id="admin-to-UC_CREATE" style="stroke:#181818;stroke-width:1;"/><polygon fill="#181818" points="190.6,125.68,181.0168,123.4078,185.6857,126.6018,182.4917,131.2707,190.6,125.68" style="stroke:#181818;stroke-width:1;stroke-linejoin:miter;stroke-miterlimit:10;"/></g><!--link admin to UC_DETAIL--><g class="link" data-entity-1="ent0001" data-entity-2="ent0005" data-link-type="dependency" data-source-line="27" id="lnk13"><path d="M60.74,359.43 C70.06,355.08 80.65,350.36 90.5,346.5 C130.64,330.75 172.5372,317.1777 206.4972,306.8277" fill="none" id="admin-to-UC_DETAIL" style="stroke:#181818;stroke-width:1;"/><polygon fill="#181818" points="211.28,305.37,201.5048,304.1675,206.4972,306.8277,203.8371,311.82,211.28,305.37" style="stroke:#181818;stroke-width:1;stroke-linejoin:miter;stroke-miterlimit:10;"/></g><!--link admin to UC_EDIT--><g class="link" data-entity-1="ent0001" data-entity-2="ent0006" data-link-type="dependency" data-source-line="28" id="lnk14"><path d="M60.63,372.5 C91.88,372.5 139.91,372.5 183.21,372.5" fill="none" id="admin-to-UC_EDIT" style="stroke:#181818;stroke-width:1;"/><polygon fill="#181818" points="188.21,372.5,179.21,368.5,183.21,372.5,179.21,376.5,188.21,372.5" style="stroke:#181818;stroke-width:1;stroke-linejoin:miter;stroke-miterlimit:10;"/></g><!--link admin to UC_DISABLE--><g class="link" data-entity-1="ent0001" data-entity-2="ent0007" data-link-type="dependency" data-source-line="29" id="lnk15"><path d="M60.7,383.2 C77.98,390.04 100.99,399 121.5,406.5 C151.73,417.55 181.2416,427.704 207.9316,436.694" fill="none" id="admin-to-UC_DISABLE" style="stroke:#181818;stroke-width:1;"/><polygon fill="#181818" points="212.67,438.29,205.4177,431.6264,207.9316,436.694,202.864,439.2079,212.67,438.29" style="stroke:#181818;stroke-width:1;stroke-linejoin:miter;stroke-miterlimit:10;"/></g><!--link admin to UC_DELETE--><g class="link" data-entity-1="ent0001" data-entity-2="ent0008" data-link-type="dependency" data-source-line="30" id="lnk16"><path d="M52.05,412.69 C66.8,441.06 90.31,477.76 121.5,499.5 C142.85,514.38 165.0979,521.9556 189.5979,526.8756" fill="none" id="admin-to-UC_DELETE" style="stroke:#181818;stroke-width:1;"/><polygon fill="#181818" points="194.5,527.86,186.4637,522.1663,189.5979,526.8756,184.8886,530.0097,194.5,527.86" style="stroke:#181818;stroke-width:1;stroke-linejoin:miter;stroke-miterlimit:10;"/></g><!--link admin to UC_STAT--><g class="link" data-entity-1="ent0001" data-entity-2="ent0009" data-link-type="dependency" data-source-line="31" id="lnk17"><path d="M41.86,412.72 C52.51,456.84 75.71,526.91 121.5,568.5 C143.14,588.15 168.5914,598.2691 195.2114,604.7391" fill="none" id="admin-to-UC_STAT" style="stroke:#181818;stroke-width:1;"/><polygon fill="#181818" points="200.07,605.92,192.2693,599.9076,195.2114,604.7391,190.3799,607.6813,200.07,605.92" style="stroke:#181818;stroke-width:1;stroke-linejoin:miter;stroke-miterlimit:10;"/></g><!--link UC_DISABLE to UC_REVOKE--><g class="link" data-entity-1="ent0007" data-entity-2="ent0010" data-link-type="dependency" data-source-line="33" id="lnk18"><path d="M314.7,453.5 C369.01,453.5 447.99,453.5 508.23,453.5" fill="none" id="UC_DISABLE-to-UC_REVOKE" style="stroke:#181818;stroke-width:1;stroke-dasharray:7,7;"/><polygon fill="#181818" points="513.23,453.5,504.23,449.5,508.23,453.5,504.23,457.5,513.23,453.5" style="stroke:#181818;stroke-width:1;stroke-linejoin:miter;stroke-miterlimit:10;"/><text fill="#000000" font-family="'Segoe UI'" font-size="13" lengthAdjust="spacing" textLength="54.6216" x="428.5" y="449.5283">&#171;include&#187;</text></g><?plantuml-src hLFFIjn06B_FK_p8HQMu3o1sOUkcihZTLdSL3mjbJ6OpWydCaamGAJsKGZsK7cnFGZsez511sbAXT4Ff8U9xJ9-aarsLP5lqOax3Dz_t-_TDPl3m7Zuo0ppZ-R54d9yiO7NTZ8uxQEU7w2nVVZ7PnnQQ-K5d6RCDFn9oplRV2st81XfQ8HO1r_15p3mjb2J9jf136jC8aPBAux6A67ISij9DmgclTeGCCA1XKhuPKc-R1gohTqE60fBA82mt-6n0qr0_Lb9tg4LskYnG3EijfzH4FQtY2GRTOObLGCYuXd46e0beSI3aXWBEQcf69n9X_WiokFngiaC1F_yf0mSl290cpAE9PLfwtcvrUq21uhI5oVOqjlFJgQ6-d7s0BPCT83JPEs_EgK8ihRcDdZk6w9dHaPgch7OttLwZrHvtRx887XVGmen-wxwyTSvjjgw5TarsHkzWQNKRZzeJKHlvENZXBGNFlzCxU9fksxroiscxRwVfzXhNeWepcfjitxu46-6_BDN9DNVZwSfLQDmACza76uGPVTBmxExwSiX5VYfniN_nsY9ARaPdGuUyjCiVhtr-ldwzlcfbiergRP9vjLRaETKroMnwj8YZMYjS4r9AkLQhbpmjO75HI2zCVLQl4oALPjXIMgi8Qb2I2Apm_DoQit_KhibUIKJMf7s0rkld57_Ul2zYsRj9LPli6n8XUUq_ex6oxxuOiHW_F1kRoTvAZY0_adZ2eYqMrmYJFWerVm40?></g></svg>