<svg xmlns="http://www.w3.org/2000/svg" xmlns:xlink="http://www.w3.org/1999/xlink" contentStyleType="text/css" data-diagram-type="DESCRIPTION" height="854px" preserveAspectRatio="none" style="width:638px;height:854px;background:#FFFFFF;" version="1.1" viewBox="0 0 638 854" width="638px" zoomAndPan="magnify"><?plantuml 1.2026.6?><defs/><g><!--cluster C?u h?nh h? th?ng & t?ch h?p--><g class="cluster" data-qualified-name="C.u h.nh h. th.ng . t.ch h.p" data-source-line="13" id="ent0002"><rect fill="none" height="683" rx="2.5" ry="2.5" style="stroke:#181818;stroke-width:1;" width="517" x="107.5" y="84"/><text fill="#000000" font-family="'Segoe UI'" font-size="14" font-weight="700" lengthAdjust="spacing" textLength="195.1934" x="268.4033" y="101.1074">C&#7845;u h&#236;nh h&#7879; th&#7889;ng &amp; t&#237;ch h&#7907;p</text></g><!--entity UC_LIST--><g class="entity" data-qualified-name="C.u h.nh h. th.ng . t.ch h.p.UC_LIST" data-source-line="15" id="ent0003"><ellipse cx="240.3942" cy="240.8759" fill="#F1F1F1" rx="60.3942" ry="28.8759" style="stroke:#181818;stroke-width:0.5;"/><text fill="#000000" font-family="'Segoe UI'" font-size="14" lengthAdjust="spacing" textLength="82.6055" x="199.0915" y="238.0299">Li&#7879;t k&#234; config</text><text fill="#000000" font-family="'Segoe UI'" font-size="14" lengthAdjust="spacing" textLength="76.583" x="202.1027" y="256.651">(theo nh&#243;m)</text></g><!--entity UC_VIEW--><g class="entity" data-qualified-name="C.u h.nh h. th.ng . t.ch h.p.UC_VIEW" data-source-line="16" id="ent0004"><ellipse cx="240.6526" cy="322.0305" fill="#F1F1F1" rx="70.6526" ry="16.5305" style="stroke:#181818;stroke-width:0.5;"/><text fill="#000000" font-family="'Segoe UI'" font-size="14" lengthAdjust="spacing" textLength="98.1777" x="191.5637" y="327.8411">Xem chi ti&#7871;t key</text></g><!--entity UC_UPDATE--><g class="entity" data-qualified-name="C.u h.nh h. th.ng . t.ch h.p.UC_UPDATE" data-source-line="17" id="ent0005"><ellipse cx="540.8243" cy="593.0763" fill="#F1F1F1" rx="67.3243" ry="29.0763" style="stroke:#181818;stroke-width:0.5;"/><text fill="#000000" font-family="'Segoe UI'" font-size="14" lengthAdjust="spacing" textLength="91.8682" x="494.8903" y="589.9429">C&#7853;p nh&#7853;t value</text><text fill="#000000" font-family="'Segoe UI'" font-size="14" lengthAdjust="spacing" textLength="88.1768" x="496.736" y="608.564">(ki&#7875;m tra ki&#7875;u)</text></g><!--entity UC_REVEAL--><g class="entity" data-qualified-name="C.u h.nh h. th.ng . t.ch h.p.UC_REVEAL" data-source-line="18" id="ent0006"><ellipse cx="240.6074" cy="148.7862" fill="#F1F1F1" rx="92.1074" ry="27.2862" style="stroke:#181818;stroke-width:0.5;"/><text fill="#000000" font-family="'Segoe UI'" font-size="14" lengthAdjust="spacing" textLength="80.7324" x="200.2412" y="142.256">Reveal secret</text><text fill="#000000" font-family="'Segoe UI'" font-size="14" lengthAdjust="spacing" textLength="136.6436" x="172.2856" y="160.8771">(c&#7847;n permission ri&#234;ng)</text></g><!--entity UC_SSO--><g class="entity" data-qualified-name="C.u h.nh h. th.ng . t.ch h.p.UC_SSO" data-source-line="21" id="ent0007"><ellipse cx="240.4358" cy="401.7512" fill="#F1F1F1" rx="59.9358" ry="28.2512" style="stroke:#181818;stroke-width:0.5;"/><text fill="#000000" font-family="'Segoe UI'" font-size="14" lengthAdjust="spacing" textLength="83.9727" x="198.4495" y="399.8171">C&#7845;u h&#236;nh SSO</text><text fill="#000000" font-family="'Segoe UI'" font-size="14" lengthAdjust="spacing" textLength="68.4072" x="206.2322" y="418.4382">(Authentik)</text></g><!--entity UC_OUTLINE--><g class="entity" data-qualified-name="C.u h.nh h. th.ng . t.ch h.p.UC_OUTLINE" data-source-line="22" id="ent0008"><ellipse cx="240.7155" cy="482.9431" fill="#F1F1F1" rx="72.7155" ry="16.9431" style="stroke:#181818;stroke-width:0.5;"/><text fill="#000000" font-family="'Segoe UI'" font-size="14" lengthAdjust="spacing" textLength="103.79" x="188.8205" y="488.7536">C&#7845;u h&#236;nh Outline</text></g><!--entity UC_GITLAB--><g class="entity" data-qualified-name="C.u h.nh h. th.ng . t.ch h.p.UC_GITLAB" data-source-line="23" id="ent0009"><ellipse cx="240.67" cy="552.034" fill="#F1F1F1" rx="70.67" ry="16.534" style="stroke:#181818;stroke-width:0.5;"/><text fill="#000000" font-family="'Segoe UI'" font-size="14" lengthAdjust="spacing" textLength="98.2256" x="191.5572" y="557.8445">C&#7845;u h&#236;nh GitLab</text></g><!--entity UC_DEPLOY--><g class="entity" data-qualified-name="C.u h.nh h. th.ng . t.ch h.p.UC_DEPLOY" data-source-line="24" id="ent0010"><ellipse cx="240.3751" cy="633.1119" fill="#F1F1F1" rx="116.8751" ry="29.1119" style="stroke:#181818;stroke-width:0.5;"/><text fill="#000000" font-family="'Segoe UI'" font-size="14" lengthAdjust="spacing" textLength="156.8096" x="161.9703" y="629.2961">C&#7845;u h&#236;nh deploy backend</text><text fill="#000000" font-family="'Segoe UI'" font-size="14" lengthAdjust="spacing" textLength="162.415" x="159.1676" y="647.9172">(provider / api_url / token)</text></g><!--entity UC_TOGGLE--><g class="entity" data-qualified-name="C.u h.nh h. th.ng . t.ch h.p.UC_TOGGLE" data-source-line="25" id="ent0011"><ellipse cx="240.5865" cy="724.1852" fill="#F1F1F1" rx="66.0865" ry="27.1852" style="stroke:#181818;stroke-width:0.5;"/><text fill="#000000" font-family="'Segoe UI'" font-size="14" lengthAdjust="spacing" textLength="97.1455" x="192.0138" y="723.8733">B&#7853;t / t&#7855;t feature</text><text fill="#000000" font-family="'Segoe UI'" font-size="14" lengthAdjust="spacing" textLength="54.5371" x="213.318" y="742.4944">(toggles)</text></g><!--entity admin--><g class="entity" data-qualified-name="admin" data-source-line="11" id="ent0001"><ellipse cx="33" cy="459.5" fill="#F1F1F1" rx="16" ry="16" style="stroke:#181818;stroke-width:0.5;"/><path d="M33,479.5 C37,479.5 40,479.5 44,475.5 C52,475.5 60,483.5 60,491.5 L60,495.5 C60,499.5 56,503.5 52,503.5 L14,503.5 C10,503.5 6,499.5 6,495.5 L6,491.5 C6,483.5 14,475.5 22,475.5 C26,479.5 29,479.5 33,479.5" fill="#F1F1F1" style="stroke:#181818;stroke-width:0.5;"/><text fill="#000000" font-family="'Segoe UI'" font-size="14" lengthAdjust="spacing" textLength="40.6465" x="12.6768" y="519.1074">Admin</text></g><g class="entity" data-qualified-name="GMN26" data-source-line="46" id="ent0027"><path d="M150,6 L150,67.873 A0,0 0 0 0 150,67.873 L236.5,67.873 L240.5,121.44 L244.5,67.873 L330.9546,67.873 A0,0 0 0 0 330.9546,67.873 L330.9546,16 L320.9546,6 L150,6 A0,0 0 0 0 150,6" fill="#FAFAFA" style="stroke:#181818;stroke-width:0.5;"/><path d="M320.9546,6 L320.9546,16 L330.9546,16 L320.9546,6" fill="#FAFAFA" style="stroke:#181818;stroke-width:0.5;"/><text fill="#000000" font-family="'Segoe UI'" font-size="13" lengthAdjust="spacing" textLength="158.0757" x="156" y="25.0283">Secret m&#7863;c &#273;&#7883;nh mask "***".</text><text fill="#000000" font-family="'Segoe UI'" font-size="13" lengthAdjust="spacing" textLength="159.9546" x="156" y="42.3193">Ch&#7881; reveal khi c&#243; permission</text><text fill="#000000" font-family="'Segoe UI'" font-size="13" lengthAdjust="spacing" textLength="149.0557" x="156" y="59.6104">system.config.read_secret.</text></g><!--link admin to UC_LIST--><g class="link" data-entity-1="ent0001" data-entity-2="ent0003" data-link-type="dependency" data-source-line="28" id="lnk12"><path d="M37.1,442.79 C42.57,399.05 57.7,329.79 99.5,288 C121.35,266.16 148.7699,255.5583 176.8399,249.2983" fill="none" id="admin-to-UC_LIST" style="stroke:#181818;stroke-width:1;"/><polygon fill="#181818" points="181.72,248.21,172.0651,246.2649,176.8399,249.2983,173.8065,254.0731,181.72,248.21" style="stroke:#181818;stroke-width:1;stroke-linejoin:miter;stroke-miterlimit:10;"/></g><!--link admin to UC_VIEW--><g class="link" data-entity-1="ent0001" data-entity-2="ent0004" data-link-type="dependency" data-source-line="29" id="lnk13"><path d="M44.93,442.84 C54.69,414.47 71.81,377.78 99.5,356 C120.14,339.77 142.4806,332.0241 167.4606,327.4841" fill="none" id="admin-to-UC_VIEW" style="stroke:#181818;stroke-width:1;"/><polygon fill="#181818" points="172.38,326.59,162.8098,324.2638,167.4606,327.4841,164.2403,332.1349,172.38,326.59" style="stroke:#181818;stroke-width:1;stroke-linejoin:miter;stroke-miterlimit:10;"/></g><!--link admin to UC_UPDATE--><g class="link" data-entity-1="ent0001" data-entity-2="ent0005" data-link-type="dependency" data-source-line="30" id="lnk14"><path d="M37.21,523.23 C43.82,594.4 61.62,737.84 99.5,768 C189.2,839.43 250.92,810.29 357.5,768 C431.76,738.54 489.8049,666.6177 518.8149,625.1277" fill="none" id="admin-to-UC_UPDATE" style="stroke:#181818;stroke-width:1;"/><polygon fill="#181818" points="521.68,621.03,513.2446,626.1137,518.8149,625.1277,519.8009,630.6979,521.68,621.03" style="stroke:#181818;stroke-width:1;stroke-linejoin:miter;stroke-miterlimit:10;"/></g><!--link admin to UC_REVEAL--><g class="link" data-entity-1="ent0001" data-entity-2="ent0006" data-link-type="dependency" data-source-line="31" id="lnk15"><path d="M38.2,442.75 C46.35,372.16 66.45,230.1 99.5,194 C114.5,177.62 130.7,168.6791 151.86,162.0291" fill="none" id="admin-to-UC_REVEAL" style="stroke:#181818;stroke-width:1;"/><polygon fill="#181818" points="156.63,160.53,146.8448,159.4123,151.86,162.0291,149.2433,167.0443,156.63,160.53" style="stroke:#181818;stroke-width:1;stroke-linejoin:miter;stroke-miterlimit:10;"/></g><!--link admin to UC_SSO--><g class="link" data-entity-1="ent0001" data-entity-2="ent0007" data-link-type="dependency" data-source-line="32" id="lnk16"><path d="M60.57,467.45 C72.28,460.96 86.34,453.63 99.5,448 C128.32,435.68 156.8269,426.0768 183.7169,417.8868" fill="none" id="admin-to-UC_SSO" style="stroke:#181818;stroke-width:1;"/><polygon fill="#181818" points="188.5,416.43,178.725,415.2258,183.7169,417.8868,181.0559,422.8787,188.5,416.43" style="stroke:#181818;stroke-width:1;stroke-linejoin:miter;stroke-miterlimit:10;"/></g><!--link admin to UC_OUTLINE--><g class="link" data-entity-1="ent0001" data-entity-2="ent0008" data-link-type="dependency" data-source-line="33" id="lnk17"><path d="M60.87,483 C87.96,483 125.95,483 162.96,483" fill="none" id="admin-to-UC_OUTLINE" style="stroke:#181818;stroke-width:1;"/><polygon fill="#181818" points="167.96,483,158.96,479,162.96,483,158.96,487,167.96,483" style="stroke:#181818;stroke-width:1;stroke-linejoin:miter;stroke-miterlimit:10;"/></g><!--link admin to UC_GITLAB--><g class="link" data-entity-1="ent0001" data-entity-2="ent0009" data-link-type="dependency" data-source-line="34" id="lnk18"><path d="M60.75,498.7 C72.37,505.03 86.32,512.01 99.5,517 C127.15,527.47 154.1691,534.6353 180.5391,540.4953" fill="none" id="admin-to-UC_GITLAB" style="stroke:#181818;stroke-width:1;"/><polygon fill="#181818" points="185.42,541.58,177.502,535.7229,180.5391,540.4953,175.7666,543.5324,185.42,541.58" style="stroke:#181818;stroke-width:1;stroke-linejoin:miter;stroke-miterlimit:10;"/></g><!--link admin to UC_DEPLOY--><g class="link" data-entity-1="ent0001" data-entity-2="ent0010" data-link-type="dependency" data-source-line="35" id="lnk19"><path d="M51.38,523.23 C62.41,544.54 78.56,569.61 99.5,586 C114.94,598.09 128.9601,605.4439 147.6101,612.2139" fill="none" id="admin-to-UC_DEPLOY" style="stroke:#181818;stroke-width:1;"/><polygon fill="#181818" points="152.31,613.92,145.215,607.0891,147.6101,612.2139,142.4853,614.609,152.31,613.92" style="stroke:#181818;stroke-width:1;stroke-linejoin:miter;stroke-miterlimit:10;"/></g><!--link admin to UC_TOGGLE--><g class="link" data-entity-1="ent0001" data-entity-2="ent0011" data-link-type="dependency" data-source-line="36" id="lnk20"><path d="M36.89,523.12 C42.18,567.15 57.15,637.13 99.5,679 C120.11,699.38 145.0842,709.4223 171.9342,715.5223" fill="none" id="admin-to-UC_TOGGLE" style="stroke:#181818;stroke-width:1;"/><polygon fill="#181818" points="176.81,716.63,168.9198,710.7355,171.9342,715.5223,167.1475,718.5367,176.81,716.63" style="stroke:#181818;stroke-width:1;stroke-linejoin:miter;stroke-miterlimit:10;"/></g><!--link UC_SSO to UC_UPDATE--><g class="link" data-entity-1="ent0007" data-entity-2="ent0005" data-link-type="dependency" data-source-line="39" id="lnk21"><path d="M289.08,418.93 C310.35,426.99 335.52,437.21 357.5,448 C397.39,467.59 408.23,471.98 443.5,499 C469.86,519.2 493.2408,542.2712 511.8908,562.0612" fill="none" id="UC_SSO-to-UC_UPDATE" style="stroke:#181818;stroke-width:1;stroke-dasharray:7,7;"/><polygon fill="#181818" points="515.32,565.7,512.0585,556.4068,511.8908,562.0612,506.2365,561.8935,515.32,565.7" style="stroke:#181818;stroke-width:1;stroke-linejoin:miter;stroke-miterlimit:10;"/><text fill="#000000" font-family="'Segoe UI'" font-size="13" lengthAdjust="spacing" textLength="54.6216" x="388.5" y="460.0283">&#171;include&#187;</text></g><!--link UC_OUTLINE to UC_UPDATE--><g class="link" data-entity-1="ent0008" data-entity-2="ent0005" data-link-type="dependency" data-source-line="40" id="lnk22"><path d="M289.61,495.62 C331.03,507.04 392.07,525.22 443.5,546 C461.47,553.26 476.2857,560.1483 492.8657,568.4183" fill="none" id="UC_OUTLINE-to-UC_UPDATE" style="stroke:#181818;stroke-width:1;stroke-dasharray:7,7;"/><polygon fill="#181818" points="497.34,570.65,491.0717,563.0534,492.8657,568.4183,487.5009,570.2123,497.34,570.65" style="stroke:#181818;stroke-width:1;stroke-linejoin:miter;stroke-miterlimit:10;"/><text fill="#000000" font-family="'Segoe UI'" font-size="13" lengthAdjust="spacing" textLength="54.6216" x="388.5" y="522.0283">&#171;include&#187;</text></g><!--link UC_GITLAB to UC_UPDATE--><g class="link" data-entity-1="ent0009" data-entity-2="ent0005" data-link-type="dependency" data-source-line="41" id="lnk23"><path d="M301.91,560.3 C352.67,567.27 420.0464,576.5302 471.6364,583.6102" fill="none" id="UC_GITLAB-to-UC_UPDATE" style="stroke:#181818;stroke-width:1;stroke-dasharray:7,7;"/><polygon fill="#181818" points="476.59,584.29,468.2174,579.1035,471.6364,583.6102,467.1297,587.0292,476.59,584.29" style="stroke:#181818;stroke-width:1;stroke-linejoin:miter;stroke-miterlimit:10;"/><text fill="#000000" font-family="'Segoe UI'" font-size="13" lengthAdjust="spacing" textLength="54.6216" x="388.5" y="569.0283">&#171;include&#187;</text></g><!--link UC_DEPLOY to UC_UPDATE--><g class="link" data-entity-1="ent0010" data-entity-2="ent0005" data-link-type="dependency" data-source-line="42" id="lnk24"><path d="M356.82,629.74 C385.29,627.8 415.61,624.75 443.5,620 C457.56,617.61 467.7014,615.3144 481.5314,611.4844" fill="none" id="UC_DEPLOY-to-UC_UPDATE" style="stroke:#181818;stroke-width:1;stroke-dasharray:7,7;"/><polygon fill="#181818" points="486.35,610.15,476.6089,608.6971,481.5314,611.4844,478.744,616.4069,486.35,610.15" style="stroke:#181818;stroke-width:1;stroke-linejoin:miter;stroke-miterlimit:10;"/><text fill="#000000" font-family="'Segoe UI'" font-size="13" lengthAdjust="spacing" textLength="54.6216" x="388.5" y="616.0283">&#171;include&#187;</text></g><!--link UC_TOGGLE to UC_UPDATE--><g class="link" data-entity-1="ent0011" data-entity-2="ent0005" data-link-type="dependency" data-source-line="43" id="lnk25"><path d="M296.07,709.27 C337.54,697.15 395.45,678.22 443.5,655 C465.2,644.52 483.8147,632.9252 501.7747,620.6252" fill="none" id="UC_TOGGLE-to-UC_UPDATE" style="stroke:#181818;stroke-width:1;stroke-dasharray:7,7;"/><polygon fill="#181818" points="505.9,617.8,496.2143,619.5852,501.7747,620.6252,500.7347,626.1857,505.9,617.8" style="stroke:#181818;stroke-width:1;stroke-linejoin:miter;stroke-miterlimit:10;"/><text fill="#000000" font-family="'Segoe UI'" font-size="13" lengthAdjust="spacing" textLength="54.6216" x="388.5" y="651.0283">&#171;include&#187;</text></g><?plantuml-src hLJBQjj05DthAmvUv0LszY4DE8xh68HjOZjjeH0cqbWQBCseqYZ1b2vAeQMqXUONafP2Q2WbYuApw4Bz4Vr9hoKtaMneDj526fqvzp7dtZkhUFG0Zx4AzDpaN29CBhRGIATVXjXFFdRsiP_UlCM0tfyxBQnWa7ngPE1v3sjrsnTodOmV90UFZpIqGYWSLyCM8RUqKDA8na86B6G-V2MLvORAvz1Xp0ixaSjiTIgaWn7pek9EmAmnStXVJpoEcKic7Qz8iFc8nPv-hAJkCF9SwND7SGpRbGA9MLg5kGzsoYFAm30o39a6O17OR64Ojo5G8Hc_nd2JxzA5czwyWwRt6UMu0frSMHbu4LJmqW1MKQrMqL1o91mq3ePxit_2uuXRBA9q6aTckpy0Pg4gfY1t6kFa4bPcybokQPShI3UvzjShPSF3TlF9tF0fzs6v0bgaqz_aW4yMkCFUNdtGpBYK_bL07kcZSSAyc5EKCKL-uvFy3DaoNWnsq3niritCmG4_uSm3xOLSawsLJhz913pqHHHHPQdIoQLqoCEj08CxNPO5wFUxc9-ZA2t1vBmUam1IY_5YGjtXm6ntcajctLXxGl85TgizCEkxI-IMq2OxNk3kDNjczzaIr-Q1foOufiRZqgRKWb2T29k7s0GBn54SUhJIYdONSnrqMoqpJtKtavruwVI7neWp7OUp0cZbK7D5PFcAMZ1hlcfrvrz_b95PuSj8NjuobbUiZ96cPM2kOXdCnIfZkIXbB3-MGHT5KQV236pcfyAVi_JcTPpDoKyBxgpB9Lx43DPIBnft3O5QhN0uR65xMqZBYss-isCKEk0Ushpqzz7cLR-FDY_bVsc6L9hZM6cjVAXHeHX0FviQ-EdqbvNfye4ayraqHcLZOwDI8qg3P7fFTresPMEQQYkvBemNCQ99fBbVo--8MiYPVPHFOysWriGi_5y0?></g></svg>